<svg width="120" height="119" viewBox="0 0 120 119" fill="none" xmlns="http://www.w3.org/2000/svg">
<path d="M5.0625 0.348625C2.74219 1.1621 1.14844 3.4166 1.14844 5.90351C1.14844 6.71699 1.28906 7.73964 1.47656 8.18124C1.99219 9.41308 3.28125 10.7146 4.57031 11.2957C5.57812 11.7838 6.11719 11.8535 8.39062 11.8535H11.0156V46.6006V81.3476H9.30469C7.92188 81.3476 7.35938 81.4639 6.375 81.9519C1.92188 84.16 2.01562 90.2494 6.5625 92.6433C7.33594 93.0617 8.27344 93.0849 22.3359 93.1547C30.5391 93.1779 37.2656 93.2941 37.2656 93.3871C37.2656 93.4801 35.9531 97.4777 34.3359 102.266C32.7188 107.054 31.2891 111.446 31.1484 112.004C30.2344 116.025 34.4531 119.906 38.6016 118.791C39.8906 118.442 41.4609 117.234 42.1172 116.095C42.4219 115.583 44.3203 110.214 46.3359 104.171L50.0391 93.2012H52.5469H55.0781V103.567C55.0781 110.865 55.1719 114.212 55.3594 114.863C55.6875 115.979 57.1875 117.722 58.3359 118.279C61.2188 119.744 64.8281 118.558 66.3984 115.653C66.9141 114.723 66.9141 114.491 66.9844 103.939L67.0547 93.1779L69.5391 93.2476L72.0234 93.3174L75.7031 104.241C77.7188 110.261 79.5469 115.49 79.7578 115.886C80.3438 117.024 81.9844 118.279 83.3906 118.675C86.2969 119.511 89.3906 118.024 90.6094 115.165C91.3828 113.329 91.1484 112.306 87.7734 102.452L84.6328 93.2012H99.2344C115.875 93.2012 115.266 93.2709 117.234 91.3185C119.648 88.9246 119.578 85.415 117.07 82.9281C115.992 81.859 114.516 81.3476 112.57 81.3476H111.094V46.6006V11.8535H112.688C115.547 11.8535 117.938 10.1801 118.688 7.64668C119.156 6.13593 119.156 5.71757 118.711 4.27656C118.289 2.88203 117.023 1.3248 115.688 0.627533L114.727 0.116203L60.3516 0.0697174C14.5312 0.0232315 5.83594 0.0697174 5.0625 0.348625ZM114.281 4.50898C115.195 5.27597 115.195 6.57753 114.281 7.34452L113.648 7.90234H59.9766H6.30469L5.74219 7.32128C4.94531 6.55429 4.94531 5.29921 5.74219 4.53222L6.30469 3.95116H59.9766H113.648L114.281 4.50898ZM106.992 46.6006V81.2314L61.0078 81.3012L15 81.3476V46.6006V11.8535L61.0078 11.9L106.992 11.9697V46.6006ZM114.375 85.8799C115.125 86.6701 115.125 87.9019 114.422 88.6224L113.883 89.1338L61.1484 89.2035L8.41406 89.25L7.71094 88.576C6.77344 87.6463 6.86719 86.4144 7.94531 85.601C8.22656 85.3685 19.9688 85.3221 61.0781 85.2988H113.836L114.375 85.8799ZM45.7031 93.3871C45.7031 93.6892 39 113.515 38.7188 114.026C38.5781 114.305 38.1328 114.654 37.7344 114.816C37.1016 115.072 36.8672 115.072 36.2344 114.747C34.6172 114.003 34.5938 114.049 38.2734 103.102L41.6016 93.2012H43.6406C44.7891 93.2012 45.7031 93.2709 45.7031 93.3871ZM63.0469 103.404V113.631L62.4844 114.259C61.7109 115.165 60.3984 115.165 59.625 114.259L59.0625 113.631V103.404V93.2012H61.0547H63.0469V103.404ZM83.7188 102.963C85.5 108.262 86.9531 112.864 86.9531 113.213C86.9531 114.584 84.7734 115.444 83.6953 114.491C83.3906 114.212 82.0547 110.586 79.8047 103.916C77.9297 98.3377 76.4062 93.6428 76.4062 93.4801C76.4062 93.2476 76.8984 93.2012 78.4453 93.2476L80.4609 93.3174L83.7188 102.963Z" fill="#8DC8CF"/>
<path d="M21.0938 17.7803V19.7559H31.0547H41.0156V17.7803V15.8047H31.0547H21.0938V17.7803Z" fill="#8DC8CF"/>
<path d="M21.0938 25.6826V27.6582H27.0703H33.0469V25.6826V23.707H27.0703H21.0938V25.6826Z" fill="#8DC8CF"/>
<path d="M98.9062 29.75V33.7012H100.898H102.891V29.75V25.7988H100.898H98.9062V29.75Z" fill="#8DC8CF"/>
<path d="M90.9844 32.7017L91.0547 35.6767L93 35.7464L94.9219 35.8162V32.7714V29.75H92.9297H90.9141L90.9844 32.7017Z" fill="#8DC8CF"/>
<path d="M59.0625 34.6309V37.6523H61.0547H63.0703L63 34.6773L62.9297 31.7256L61.0078 31.6559L59.0625 31.5861V34.6309Z" fill="#8DC8CF"/>
<path d="M83.0156 36.6529L83.0859 39.6279L85.0312 39.6976L86.9531 39.7673V36.7226V33.7011H84.9609H82.9453L83.0156 36.6529Z" fill="#8DC8CF"/>
<path d="M67.0312 38.6982V41.6035H69.0234H71.0156V38.6982V35.793H69.0234H67.0312V38.6982Z" fill="#8DC8CF"/>
<path d="M51.0938 40.6738V43.6953H53.0859H55.0781V40.6738V37.6523H53.0859H51.0938V40.6738Z" fill="#8DC8CF"/>
<path d="M18.9844 42.6494V45.5547H20.9766H22.9688V42.6494V39.7441H20.9766H18.9844V42.6494Z" fill="#8DC8CF"/>
<path d="M75 42.6494V45.5547H76.9922H78.9844V42.6494V39.7441H76.9922H75V42.6494Z" fill="#8DC8CF"/>
<path d="M26.9531 46.6006V49.5059H28.9453H30.9375V46.6006V43.6953H28.9453H26.9531V46.6006Z" fill="#8DC8CF"/>
<path d="M43.125 46.6006V49.5059H45.1172H47.1094V46.6006V43.6953H45.1172H43.125V46.6006Z" fill="#8DC8CF"/>
<path d="M91.6172 44.2996L91.0547 44.9039L90.9844 58.1287L90.9375 71.3535H88.0078H85.0781V63.335C85.0781 54.6191 85.0312 54.2938 83.7891 53.7359C83.3906 53.55 81.7266 53.457 78.9609 53.457C74.5781 53.457 73.6172 53.643 73.2656 54.5029C73.1953 54.7121 73.125 58.5936 73.125 63.1258V71.3535H70.0781H67.0312V62.2891C67.0312 52.7365 66.9609 52.1322 65.9766 51.7371C65.7656 51.6674 63.4922 51.5977 60.9141 51.5977C56.25 51.5977 56.2266 51.5977 55.6641 52.1787L55.0781 52.7365V62.0566V71.3535H52.0312H48.9844V67.077C48.9844 62.8701 48.9609 62.7771 48.4219 62.1264L47.8594 61.4756H43.0078H38.1562L37.5938 62.1264C37.0547 62.7771 37.0312 62.8701 37.0312 67.077V71.3535H33.9844H30.9375V65.0084V58.64L30.3281 58.0822C29.7422 57.5477 29.625 57.5244 25.3125 57.4547C20.4609 57.3617 19.6641 57.5477 19.2188 58.7098C19.0781 59.0352 18.9844 62.5215 18.9844 66.6121V73.9566L19.6641 74.6307L20.3438 75.3047H61.0078H101.648L102.281 74.8166L102.891 74.3518V59.5232V44.6947L102.352 44.2066C101.836 43.7186 101.602 43.6953 97.0078 43.6953H92.1797L91.6172 44.2996ZM98.9062 59.5V71.3535H96.9141H94.9219V59.5V47.6465H96.9141H98.9062V59.5ZM63.0469 63.4512V71.3535H61.0547H59.0625V63.4512V55.5488H61.0547H63.0469V63.4512ZM81.0469 64.4273L81.0938 71.3535H79.1016H77.1094V64.3809V57.385L79.0547 57.4547L80.9766 57.5244L81.0469 64.4273ZM26.9531 66.3564V71.3535H24.9609H22.9688V66.5191C22.9688 63.8463 23.0391 61.5918 23.1328 61.5221C23.2031 61.4291 24.1172 61.3594 25.125 61.3594H26.9531V66.3564ZM45 68.332V71.3535H43.0078H41.0156V68.4947C41.0156 66.9143 41.0859 65.543 41.1797 65.4732C41.25 65.3803 42.1641 65.3105 43.1719 65.3105H45V68.332Z" fill="#8DC8CF"/>
<path d="M35.0859 45.6941C34.9922 45.7871 34.9219 47.5768 34.9219 49.6686V53.457H37.0312H39.1406L39.0938 49.5523L39.0234 45.6709L37.1484 45.6012C36.0938 45.5779 35.1797 45.6012 35.0859 45.6941Z" fill="#8DC8CF"/>
</svg>
