<svg width="97" height="94" viewBox="0 0 97 94" fill="none" xmlns="http://www.w3.org/2000/svg">
<path d="M43.0449 0.4039C42.6963 0.64257 40.6865 2.22148 38.5742 3.94726C36.4619 5.65468 34.6572 7.08672 34.5752 7.12344C34.4932 7.14179 31.8682 6.68281 28.7305 6.07695C22.8652 4.95702 22.4756 4.9203 21.8398 5.5996C21.6758 5.7832 20.7529 8.1332 19.7891 10.8137L18.0254 15.6973L12.4678 17.3496C9.41211 18.2492 6.70508 19.1672 6.47949 19.3508C6.2334 19.5527 6.04883 19.9383 6.04883 20.232C6.04883 20.5074 6.56152 22.8574 7.17676 25.4461C7.79199 28.0348 8.30469 30.293 8.30469 30.4582C8.28418 30.6234 6.54102 32.4777 4.42871 34.5707C2.2959 36.682 0.491211 38.5914 0.429688 38.8301C0.368164 39.0687 0.388672 39.4543 0.491211 39.693C0.614258 39.9316 2.39844 41.8043 4.49023 43.8789C6.58203 45.9352 8.30469 47.7527 8.30469 47.918C8.30469 48.0648 7.79199 50.3047 7.17676 52.875C6.56152 55.4453 6.04883 57.7586 6.04883 58.0156C6.04883 59.0437 6.39746 59.209 12.1602 60.8797C15.1748 61.7426 17.6768 62.4953 17.7178 62.532C17.7588 62.5687 15.4619 67.8012 12.6113 74.1719C9.76074 80.5426 7.42285 85.9586 7.42285 86.1973C7.44336 86.8582 7.99707 87.5191 8.65332 87.6477C9.04297 87.7211 11.0117 87.2988 14.6416 86.3809C17.6357 85.6281 20.1787 85.0039 20.3018 85.0039C20.4248 85.0039 21.5732 86.9133 22.8652 89.2449C25.2852 93.5777 25.6133 94 26.7412 94C27.7256 94 28.1357 93.2656 32.832 83.4434C35.375 78.0824 37.5078 73.6762 37.5488 73.6395C37.5693 73.6027 38.8613 74.5941 40.3994 75.8426C41.9375 77.091 43.373 78.1742 43.5986 78.2477C44.3779 78.523 45.0137 78.1742 47.4746 76.173C48.8281 75.0715 50.0176 74.1719 50.1201 74.1719C50.2021 74.1719 52.4785 78.4496 55.165 83.682C58.0156 89.2449 60.251 93.3391 60.5381 93.5961C61.1943 94.1285 62.1172 94.1285 62.7529 93.5594C63.0195 93.3207 64.2705 91.3012 65.5215 89.0613C66.752 86.8215 67.8799 85.0039 67.9824 85.0039C68.1055 85.0039 70.6279 85.6281 73.5811 86.3809C76.5342 87.1336 79.1182 87.7578 79.3232 87.7578C79.8359 87.7578 80.9023 86.7664 80.9023 86.3074C80.9023 86.0871 78.5439 80.6527 75.6729 74.227C72.8018 67.8012 70.4639 62.532 70.5049 62.5137C70.5254 62.4953 72.9043 61.7977 75.7754 60.9715C78.6465 60.1453 81.2305 59.3191 81.5176 59.1355C81.8662 58.9152 82.0508 58.6031 82.0918 58.1258C82.1328 57.7586 81.6406 55.2617 80.9844 52.5812L79.8359 47.6977L80.5332 47.0367C82.8711 44.8152 87.5469 40.0785 87.7109 39.7297C87.834 39.5094 87.875 39.1055 87.793 38.8301C87.7109 38.573 85.9062 36.6269 83.7734 34.4973C81.6201 32.3859 79.877 30.5867 79.877 30.5133C79.877 30.4398 80.3896 28.2734 81.0049 25.7031C82.1533 20.9113 82.2764 20.0668 81.9277 19.4609C81.6816 19.057 81.415 18.9652 75.1191 17.1477L70.2588 15.7523L68.8027 11.75C68.0234 9.54687 67.3672 7.69257 67.3672 7.6375C67.3672 7.58242 67.1826 7.06835 66.9365 6.49921C66.2188 4.77343 66.2188 4.77343 59.5742 6.07695C56.4775 6.66445 53.873 7.16015 53.791 7.16015C53.709 7.16015 51.7812 5.65468 49.5049 3.80038C47.249 1.96445 45.1777 0.36718 44.9521 0.238663C44.2754 -0.0918045 43.7217 -0.0550842 43.0449 0.4039ZM48.4795 7.21523C50.5713 8.90429 52.499 10.3363 52.7451 10.3914C52.9912 10.4465 55.6162 10.0426 58.5693 9.47343C61.5225 8.90429 63.9629 8.46367 63.9629 8.48203C63.9834 8.51875 64.7217 10.5566 65.6035 13.0351C66.4854 15.5137 67.3262 17.7168 67.4902 17.9371C67.7158 18.2492 68.9463 18.6715 72.9453 19.8281C75.7959 20.6543 78.1953 21.3887 78.2773 21.4437C78.3594 21.5172 77.9082 23.702 77.293 26.309C76.6572 28.916 76.2061 31.2293 76.2676 31.4496C76.3291 31.6699 78.0518 33.5059 80.082 35.5254L83.7734 39.1789L83.1787 39.748C80.2051 42.5937 76.3701 46.541 76.2676 46.8898C76.1855 47.2203 77.6006 53.7379 78.3594 56.4918C78.4824 56.8773 78.1748 56.9875 73.2734 58.4012C70.4229 59.2273 67.9209 60.0168 67.7158 60.182C67.5107 60.3473 66.6494 62.4402 65.6855 65.0656C64.7832 67.5992 64.0039 69.7289 63.9629 69.784C63.9424 69.8391 61.666 69.4535 58.918 68.9211C56.1699 68.3887 53.6064 67.948 53.1963 67.9297C52.5195 67.9297 52.1094 68.2051 48.4795 71.1609C46.2852 72.9234 44.3779 74.4289 44.2549 74.484C44.1113 74.5391 42.5322 73.4008 40.7686 71.9504C38.9844 70.5 37.1387 69.0129 36.667 68.6273C36.0312 68.1133 35.6211 67.9297 35.1289 67.9297C34.7598 67.9297 32.1963 68.3703 29.4277 68.9211C26.0439 69.5637 24.3623 69.8207 24.2803 69.6922C24.1982 69.582 23.4395 67.5074 22.5781 65.084C21.6143 62.4219 20.8145 60.5125 20.5684 60.2738C20.3223 60.0535 19.8506 59.7781 19.502 59.6863C19.1533 59.5945 16.8154 58.9152 14.334 58.1992L9.78125 56.8957L10.2734 54.9312C11.791 48.6891 12.0781 47.2203 11.8936 46.743C11.7705 46.4859 10.0889 44.7051 8.14062 42.7773C6.17188 40.8496 4.63379 39.1789 4.6748 39.0504C4.73633 38.9219 6.41797 37.2328 8.38672 35.2684C11.709 32.0187 11.9961 31.6699 11.9756 31.0457C11.9756 30.6785 11.4834 28.4019 10.8887 25.9785C10.2939 23.5551 9.84277 21.5172 9.9248 21.4621C9.98633 21.3887 12.2627 20.7094 14.9697 19.9383C17.6768 19.1672 20.1172 18.3777 20.4043 18.1941C20.7939 17.9371 21.2246 16.9641 22.5781 13.2371C23.501 10.6852 24.3008 8.57382 24.3418 8.5371C24.3828 8.48203 26.8027 8.90429 29.7148 9.47343C32.627 10.0426 35.2314 10.4465 35.498 10.3914C35.7646 10.318 37.7949 8.79414 40.0303 6.99492C43.332 4.31445 44.1523 3.74531 44.3779 3.91054C44.542 4.03905 46.3877 5.5078 48.4795 7.21523ZM76.083 83.682C76.042 83.7187 74.0938 83.2414 71.7148 82.6172C67.2031 81.4605 66.4648 81.3504 65.8496 81.7543C65.6445 81.8828 64.6191 83.5168 63.5732 85.3711C61.9736 88.2168 61.6455 88.6941 61.4814 88.382C61.3584 88.1984 59.3896 84.398 57.1133 79.9734C52.8477 71.6566 52.7451 71.418 53.7705 71.2711C53.9756 71.2344 56.5391 71.675 59.4512 72.2441C62.3633 72.7949 64.9678 73.2539 65.2344 73.2539C66.1982 73.2539 66.6699 72.5562 67.6953 69.7105L68.6797 66.9934L72.3916 75.3102C74.4424 79.8816 76.1035 83.6453 76.083 83.682ZM20.7119 70.0043C21.5938 72.391 21.8193 72.8316 22.291 73.0703C22.9062 73.3641 22.8857 73.3641 32.4424 71.5648C33.5908 71.3445 34.5957 71.216 34.6572 71.2711C34.7393 71.3262 32.9141 75.2918 30.6377 80.0652L26.4951 88.7309L24.5674 85.316C23.5215 83.4066 22.4961 81.8094 22.2705 81.6992C21.5938 81.3871 21.0811 81.4789 16.6309 82.6172C14.2725 83.223 12.3037 83.682 12.2627 83.6453C12.1602 83.5535 19.4609 67.1953 19.584 67.1953C19.6455 67.2137 20.1582 68.4621 20.7119 70.0043Z" fill="#8DC8CF"/>
<path d="M31.9707 23.6652C29.9814 24.1058 28.1562 25.5012 27.2129 27.3187C26.8027 28.1449 26.6797 28.6406 26.6797 29.7422C26.7002 35.1398 33.7754 37.9855 38.2461 34.3871C41.1377 32.0555 41.3838 28.2183 38.8203 25.593C37.2002 23.9406 34.3906 23.1512 31.9707 23.6652ZM35.1699 27.025C36.2568 27.5207 36.8105 28.1633 36.9951 29.118C37.3643 30.9722 36.0723 32.6062 34.083 32.8082C32.8525 32.9367 31.8271 32.6062 31.0889 31.8535C29.4687 30.2012 30.002 27.8512 32.1758 26.9699C33.2832 26.5109 34.083 26.5293 35.1699 27.025Z" fill="#8DC8CF"/>
<path d="M42.7578 38.0957L30.5557 49.0195L31.8477 50.1578L33.1191 51.3145L45.3623 40.3539L57.626 29.375L56.3955 28.2734C55.7188 27.6676 55.124 27.1719 55.0625 27.1719C55.001 27.1719 49.4639 32.0922 42.7578 38.0957Z" fill="#8DC8CF"/>
<path d="M54.3037 44.1359C49.4639 45.5496 47.8233 50.9289 51.2275 54.2703C51.8018 54.8395 52.7041 55.4637 53.3809 55.7574C54.4063 56.198 54.7959 56.2715 56.3955 56.2715C57.9951 56.2715 58.3848 56.198 59.3897 55.7574C61.4199 54.8762 62.876 53.1137 63.2246 51.1492C63.7168 48.4137 62.1787 45.7332 59.4512 44.5398C58.0361 43.9156 55.6777 43.732 54.3037 44.1359ZM57.9336 47.4039C59.2051 47.9914 59.7793 48.8176 59.7793 50.066C59.7793 51.2594 59.4102 51.957 58.4463 52.618C57.0518 53.5543 55.001 53.3891 53.8525 52.2324C52.6426 51.0023 52.6016 49.3316 53.7295 48.1383C54.8164 46.9816 56.3955 46.7063 57.9336 47.4039Z" fill="#8DC8CF"/>
<path d="M86.9111 0.275392C86.6445 0.440625 86.2959 1.06484 86.0293 1.79922C85.2295 4.07578 83.5684 5.54453 81.1074 6.16875C79.6924 6.53594 79.1797 6.9582 79.1797 7.78438C79.1797 8.66563 79.6924 9.08789 81.2715 9.54688C83.7529 10.2629 85.291 11.6582 85.9678 13.7695C86.3779 15.0914 86.9111 15.6055 87.875 15.6055C88.8389 15.6055 89.3721 15.0914 89.7822 13.7695C90.459 11.6582 92.2637 10.0793 94.6631 9.45508C96.0576 9.10625 96.5703 8.64727 96.5703 7.76602C96.5703 6.9582 95.8525 6.35234 94.7246 6.18711C93.5352 6.02188 91.792 4.99375 90.9307 3.96563C90.5 3.46992 89.9668 2.49688 89.7207 1.81758C89.249 0.477345 88.7773 9.53674e-07 87.875 9.53674e-07C87.5879 9.53674e-07 87.1572 0.128516 86.9111 0.275392ZM89.0439 6.75625L90.2334 7.83945L89.0645 8.86758L87.875 9.91406L86.6855 8.86758L85.5166 7.83945L86.6445 6.77461C87.2598 6.20547 87.793 5.72813 87.8135 5.70977C87.834 5.70977 88.3877 6.16875 89.0439 6.75625Z" fill="#8DC8CF"/>
</svg>
