<svg width="100" height="113" viewBox="0 0 100 113" fill="none" xmlns="http://www.w3.org/2000/svg">
<path d="M10.6445 0.529686C9.47266 1.14765 8.75 1.98633 8.22266 3.31055C7.83203 4.30371 7.8125 4.4582 7.8125 56.5V108.696L8.28125 109.8C8.82812 111.124 9.57031 111.941 10.7422 112.537C11.6211 112.978 11.8164 113 50 113H88.3789L89.3555 112.47C90.5273 111.852 91.25 111.014 91.7773 109.689C92.168 108.696 92.1875 108.476 92.1875 65.4385V22.2027L82.6758 11.4103C77.4219 5.47343 72.9102 0.485542 72.6172 0.308983C72.168 0.044136 67.6758 0 41.8555 0H11.6211L10.6445 0.529686ZM70.3125 11.9621C70.3125 19.9957 70.332 20.4592 70.7227 21.4082C71.25 22.7324 71.9727 23.5711 73.1445 24.1891C74.1211 24.7188 74.1406 24.7188 81.6016 24.7188H89.0625V66.3434C89.0625 97.5508 89.0039 108.078 88.8281 108.431C88.7109 108.696 88.4766 109.027 88.3008 109.182C87.8711 109.557 12.5586 109.601 11.8555 109.226C11.582 109.094 11.2695 108.74 11.1523 108.431C10.8398 107.681 10.8398 5.31895 11.1523 4.54649C11.2695 4.25957 11.5625 3.90644 11.7969 3.79609C12.0703 3.6416 21.6797 3.55332 41.2695 3.55332L70.3125 3.53125V11.9621ZM80.918 21.1434C77.7148 21.1654 74.9023 21.1434 74.668 21.0771C74.4336 21.0109 74.043 20.7461 73.8281 20.4812C73.457 20.0178 73.4375 19.7309 73.4375 13.0436V6.06934L80.0781 13.5732L86.7188 21.0771L80.918 21.1434Z" fill="#8DC8CF"/>
<path d="M17.9492 9.11499C17.2461 9.71089 17.1875 10.2626 17.1875 15.8906C17.1875 21.5185 17.2461 22.0703 17.9492 22.6662C18.3984 23.0634 28.4766 23.0634 28.9258 22.6662C29.6289 22.0703 29.6875 21.5185 29.6875 15.8906C29.6875 10.2626 29.6289 9.71089 28.9258 9.11499C28.4766 8.71773 18.3984 8.71773 17.9492 9.11499ZM26.5625 15.8906V19.4218H23.4375H20.3125V15.8906V12.3593H23.4375H26.5625V15.8906Z" fill="#8DC8CF"/>
<path d="M33.3203 11.1676C32.8516 11.7193 32.8125 11.8959 32.8125 13.816V15.8906H34.375H35.9375V15.0078V14.125H45.3125H54.6875V15.0078V15.8906H56.25H57.8125V13.9926C57.8125 12.1166 57.6367 11.3883 57.0508 10.8807C56.8164 10.682 53.9844 10.6158 45.293 10.5938H33.8477L33.3203 11.1676Z" fill="#8DC8CF"/>
<path d="M32.8125 21.1875V22.9531H42.1875H51.5625V21.1875V19.4219H42.1875H32.8125V21.1875Z" fill="#8DC8CF"/>
<path d="M54.6875 21.1875V22.9531H56.25H57.8125V21.1875V19.4219H56.25H54.6875V21.1875Z" fill="#8DC8CF"/>
<path d="M17.9492 35.5994C17.7734 35.7539 17.5391 36.0849 17.4219 36.3498C17.0898 37.0339 17.0898 100.685 17.4219 101.369C17.5391 101.634 17.7734 101.965 17.9492 102.119C18.3984 102.517 81.6016 102.517 82.0508 102.119C82.2266 101.965 82.4609 101.634 82.5781 101.369C82.9102 100.685 82.9102 37.0339 82.5781 36.3498C82.4609 36.0849 82.2266 35.7539 82.0508 35.5994C81.6016 35.2021 18.3984 35.2021 17.9492 35.5994ZM79.6875 68.8593V98.875H50H20.3125V68.8593V38.8437H50H79.6875V68.8593Z" fill="#8DC8CF"/>
<path d="M42.6953 53.5426L42.1875 54.1385V61.7969V69.4553L42.6953 70.0512C42.9883 70.3602 43.418 70.625 43.6719 70.625C43.9258 70.625 47.1094 68.9477 50.7422 66.8951C56.0547 63.8936 57.3828 63.0328 57.5781 62.5693C57.9102 61.7527 57.8711 61.2893 57.4023 60.7154C56.875 60.0975 44.2773 52.9688 43.6719 52.9688C43.418 52.9688 42.9883 53.2336 42.6953 53.5426ZM52.5391 61.7969C52.5391 61.8631 50.918 62.8342 48.9258 63.9598L45.3125 65.9902V61.7969V57.6035L48.9258 59.634C50.918 60.7596 52.5391 61.7307 52.5391 61.7969Z" fill="#8DC8CF"/>
<path d="M25.5078 80.027L25 80.6229V86.5156V92.4084L25.5078 93.0043L26.0352 93.5781H49.9805C68.4961 93.5561 74.0039 93.5119 74.2383 93.2912C74.9414 92.6953 75 92.1436 75 86.5156C75 80.8877 74.9414 80.3359 74.2383 79.74C74.0039 79.5193 68.4961 79.4752 49.9805 79.4531H26.0352L25.5078 80.027ZM71.875 86.5156V90.0469H50H28.125V86.5156V82.9844H50H71.875V86.5156Z" fill="#8DC8CF"/>
<path d="M31.25 86.5156V88.2812H32.8125H34.375V86.5156V84.75H32.8125H31.25V86.5156Z" fill="#8DC8CF"/>
<path d="M37.5 86.5156V88.2812H39.0625H40.625V86.5156V84.75H39.0625H37.5V86.5156Z" fill="#8DC8CF"/>
<path d="M43.75 86.5156V88.2812H53.125H62.5V86.5156V84.75H53.125H43.75V86.5156Z" fill="#8DC8CF"/>
<path d="M65.625 86.5156V88.2812H67.1875H68.75V86.5156V84.75H67.1875H65.625V86.5156Z" fill="#8DC8CF"/>
</svg>
