<svg width="110" height="88" viewBox="0 0 110 88" fill="none" xmlns="http://www.w3.org/2000/svg">
<path d="M19.4434 0.249878C13.8145 1.27801 8.6582 5.54363 6.66016 10.7718C5.62891 13.528 5.88672 14.6874 7.5625 14.6874C8.44336 14.6874 8.85156 14.2718 9.23828 13.0468C10.2695 9.69988 13.0195 6.44051 16.1133 4.86551C19.2285 3.31238 22.3223 2.94051 25.4375 3.74988C28.1875 4.47176 29.7344 5.36863 31.8184 7.46863C33.8594 9.54675 34.9336 11.428 35.5352 14.0311C36.0508 16.1968 36.0293 16.3061 34.8047 17.0718C31.582 19.0843 29.8848 22.5624 29.8633 27.0686V28.8405L28.4883 29.5405C23.0312 32.2749 16.8652 31.2686 12.6758 26.9593C10.9785 25.2093 10.1621 23.8749 9.23828 21.3593C8.80859 20.1343 8.57227 19.7843 8.09961 19.6311C7.30469 19.3249 6.40234 19.6968 6.03711 20.4624C5.7793 21.0093 5.82227 21.2499 6.42383 22.9561C7.30469 25.4499 8.18555 26.9155 9.99023 28.8624C12.3105 31.378 14.7383 32.8655 18.0469 33.8499C20.1738 34.4624 24.4707 34.4186 26.7051 33.7624C27.6289 33.4999 28.8535 33.0405 29.4121 32.7343L30.4434 32.2093L31.0664 33.5218C31.3887 34.2436 31.7969 34.9436 31.9473 35.0749C32.1621 35.2499 31.7754 35.5343 30.3359 36.2561C27.3711 37.7218 25.2871 40.0186 24.2344 42.9499L23.7832 44.2186L23.0742 43.5843C21.3125 41.9874 19.0352 41.1561 16.543 41.1561C11.623 41.178 7.49805 44.7655 6.63867 49.7749C6.48828 50.6936 6.42383 52.3343 6.48828 53.9311C6.61719 56.7968 6.98242 58.1311 8.14258 59.9905L8.76562 60.9968L7.71289 61.3686C5.15625 62.3093 2.55664 64.7155 1.31055 67.2749C0.107422 69.7686 0 70.6655 0 79.1749V86.8968L0.537109 87.4218C1.20312 88.1218 2.01953 88.1218 2.68555 87.4218L3.22266 86.8968V79.2624C3.22266 72.2624 3.26562 71.4968 3.65234 70.2061C4.44727 67.5811 5.9082 65.8749 8.37891 64.6936C9.79688 64.0155 12.5039 63.6218 12.8906 64.0374C12.9766 64.1468 12.4395 66.6843 11.6875 69.703C10.9355 72.6999 10.3125 75.3905 10.3125 75.6749C10.3125 76.5718 10.8926 77.3374 12.9336 79.1311C15.2969 81.2311 15.5977 81.4061 16.7148 81.4061C17.7031 81.4061 18.6699 80.7061 21.248 78.1905C22.6875 76.7905 22.7734 76.6374 22.7734 75.7405C22.7734 75.2155 22.1934 72.4593 21.4629 69.6374C20.7539 66.8155 20.2168 64.3655 20.3027 64.1905C20.4961 63.6436 23.2246 63.928 24.7715 64.628C26.4688 65.4155 28.1445 67.078 29.0254 68.8936L29.7559 70.3593L29.8633 78.5624C29.9277 83.0686 30.0566 86.9405 30.1641 87.1593C30.5938 88.078 31.9043 88.2311 32.6133 87.4655C33.0645 86.9843 33.0859 86.7436 33.0859 83.2874V79.6124L33.6875 79.7655C36.8457 80.5749 42.4102 81.4936 45.7617 81.7343C48.791 81.953 48.5547 81.778 48.5547 83.9874C48.5547 87.0061 48.9844 87.9905 50.3164 87.9686C50.5957 87.9686 51.0039 87.8155 51.2402 87.6186C51.6055 87.3343 51.6914 86.9624 51.7773 84.7311L51.8848 82.1718H55H58.1152L58.2227 84.7311C58.3086 86.9624 58.3945 87.3343 58.7598 87.6186C59.2969 88.0343 60.1348 88.0561 60.6504 87.6624C61.209 87.2249 61.4453 86.1311 61.4453 84.0093C61.4453 81.8436 61.4453 81.8436 63.3145 81.8436C64.3242 81.8436 64.582 81.7561 65.1191 81.2093C65.8711 80.4436 65.9141 79.8749 65.248 79.1093L64.7539 78.5186L59.9414 78.7374C54.5273 78.978 48.3184 78.7811 43.7207 78.2343C41.0352 77.9061 35.5566 76.9218 33.8379 76.4186L33.1934 76.2436L33.0645 73.0718C32.9785 71.0811 32.8066 69.5936 32.5918 69.0249C31.4316 65.853 29.2832 63.3155 26.6406 61.9593C25.7383 61.4999 24.8574 61.0843 24.707 61.0186C24.5352 60.9749 24.6426 60.6249 25.1152 59.8811C25.7812 58.7874 26.2969 57.3874 26.5332 56.0093L26.6836 55.1999L29.2832 54.3249C36.0723 52.028 41.916 50.9999 50.875 50.5624C60.9941 50.0811 72.0371 51.4155 80.0508 54.0843L83.3164 55.178L83.4453 56.0311C83.6387 57.2561 84.3477 59.1374 85.0137 60.0999C85.4004 60.6905 85.4863 60.953 85.293 61.0186C85.1426 61.0843 84.2832 61.4999 83.3594 61.9593C80.459 63.4468 78.0742 66.4655 77.2363 69.7468C77.043 70.5124 76.9141 71.9999 76.9141 73.5749C76.9141 74.9749 76.8281 76.178 76.7422 76.2436C76.6562 76.2874 75.3457 76.6155 73.8418 76.9436C72.123 77.3374 70.9414 77.7093 70.6621 77.9718C70.0391 78.5624 70.1895 79.8093 70.9414 80.378L71.5215 80.8155L73.9492 80.3124C75.2812 80.028 76.5059 79.7655 76.6562 79.6999C76.8496 79.6343 76.9141 80.4436 76.9141 83.3093C76.9141 86.8968 76.9355 87.028 77.4082 87.4874C78.1816 88.2311 79.4062 88.0561 79.8359 87.1593C79.9434 86.9405 80.0723 83.0686 80.1367 78.5624L80.2441 70.3593L80.9531 68.8936C81.7695 67.1874 83.4238 65.5468 85.207 64.6499C86.6895 63.928 89.5039 63.6218 89.6973 64.1905C89.7832 64.3655 89.2461 66.8155 88.5371 69.6374C87.8066 72.4593 87.2266 75.2155 87.2266 75.7405C87.2266 76.6374 87.3125 76.7905 88.752 78.1905C91.3301 80.7061 92.2969 81.4061 93.2852 81.4061C94.4023 81.4061 94.7031 81.2311 97.0664 79.1311C99.1074 77.3374 99.6875 76.5718 99.6875 75.6749C99.6875 75.3905 99.0645 72.6999 98.3125 69.703C97.5605 66.6843 97.0234 64.1468 97.1094 64.0374C97.4961 63.6218 100.203 64.0155 101.621 64.6936C104.092 65.8749 105.553 67.5811 106.348 70.2061C106.734 71.4968 106.777 72.2624 106.777 79.2624V86.8968L107.314 87.4218C107.98 88.1218 108.797 88.1218 109.463 87.4218L110 86.8968V79.1749C110 70.6655 109.893 69.7686 108.689 67.2749C107.465 64.7593 104.822 62.3093 102.309 61.3905L101.256 60.9968L101.965 59.7936C103.275 57.6061 103.447 56.753 103.447 52.8593C103.426 49.053 103.168 47.8061 101.943 45.903L101.385 45.0718L102.867 43.453C108.926 36.978 109.184 27.0905 103.469 20.3968C101.363 17.9468 98.1191 15.8249 95.3691 15.103C94.4883 14.8624 94.2949 14.8843 93.8008 15.1905C93.5 15.4093 93.1777 15.8249 93.1133 16.153C92.8555 17.1811 93.3926 17.7499 95.3047 18.5155C97.5391 19.4124 99.1289 20.5061 100.697 22.1905C104.607 26.4343 105.445 32.4936 102.889 37.7874C102.072 39.4718 100.117 42.0093 99.2578 42.4686C98.957 42.6218 98.5059 42.5124 97.4316 42.0093C96.293 41.4624 95.627 41.2874 94.1445 41.1999C91.2441 41.0468 88.9023 41.8124 86.9258 43.5843L86.2168 44.2186L85.7656 42.9499C84.6914 39.9968 82.6504 37.7436 79.707 36.2561C78.1816 35.5124 77.8379 35.2499 78.0527 35.053C78.6328 34.5718 79.6855 31.8374 79.9434 30.2186C80.1797 28.6436 80.1152 24.378 79.8145 23.6343C79.6641 23.2186 81.4902 21.228 83.0371 20.1561C83.6387 19.7405 84.9922 19.0405 86.0449 18.603C87.4629 18.0343 88.043 17.6624 88.2363 17.2686C88.623 16.4811 88.2363 15.453 87.4199 15.1249C86.1738 14.5999 82.3496 16.3718 79.5781 18.7561L78.2891 19.8718L77.0859 18.6468C74.5938 16.0655 70.9199 15.0155 67.5684 15.8905C63.9375 16.8749 60.9727 19.8718 60.1777 23.4593C60.0488 23.9843 59.9414 25.8218 59.9414 27.5061C59.9414 31.0061 60.2852 32.6249 61.4453 34.3749C61.7891 34.8999 62.0039 35.403 61.918 35.4905C61.832 35.578 61.4023 35.753 60.9727 35.8843C59.2754 36.453 56.7188 38.553 55.3652 40.4999L55 41.0468L54.6348 40.4999C53.2812 38.553 50.7246 36.453 49.0273 35.8843C48.5977 35.753 48.168 35.578 48.082 35.4905C47.9961 35.403 48.2109 34.8999 48.5547 34.3749C49.7148 32.6249 50.0586 31.0061 50.0586 27.5061C50.0586 25.8218 49.9512 23.9843 49.8223 23.4593C48.834 19.0843 44.5371 15.5624 40.1328 15.5624C39.123 15.5624 39.123 15.5624 38.9941 14.7311C38.7148 13.0905 37.9629 10.8155 37.1465 9.21863C35.041 5.10613 31.2598 1.978 26.8125 0.665504C25.0293 0.162384 21.1836 -0.056366 19.4434 0.249878ZM43.0547 19.5874C44.5371 20.3311 45.8262 21.7968 46.4062 23.4155C46.8145 24.4874 46.8574 25.0124 46.793 27.8124C46.7285 30.853 46.707 31.028 46.084 32.1655C43.291 37.2843 36.2227 37.0655 33.752 31.7499C33.2363 30.6343 33.1934 30.3061 33.1934 27.5936C33.1934 24.028 33.5156 22.8905 34.9551 21.2499C36.502 19.4999 38.1562 18.7999 40.4336 18.9311C41.4434 18.9749 42.2383 19.1718 43.0547 19.5874ZM72.7891 19.4999C74.1855 20.1124 75.8613 21.928 76.377 23.3718C76.8711 24.7718 77.043 28.3155 76.7207 30.0436C75.4531 36.6718 67.1172 38.0499 63.916 32.1655C63.293 31.028 63.2715 30.853 63.207 27.878C63.1426 25.428 63.207 24.5311 63.4863 23.678C64.7754 19.7186 68.9863 17.8155 72.7891 19.4999ZM36.2441 38.4874C36.4375 38.6186 36.1797 39.9311 35.2344 43.7811C34.5254 46.603 33.8809 49.0749 33.8379 49.2718C33.7734 49.4905 33.2578 49.7311 32.4844 49.9061C31.8184 50.0593 30.25 50.5186 29.0254 50.9124C27.8008 51.328 26.7695 51.6561 26.7266 51.6561C26.5547 51.6561 26.6621 46.603 26.8555 45.553C27.4355 42.4249 29.8203 39.7124 32.8711 38.728C34.1172 38.3124 35.793 38.203 36.2441 38.4874ZM48.4902 39.2968C51.0898 40.6093 52.9805 43.278 53.2168 45.9686L53.3242 47.2155L49.6074 47.3468C47.5664 47.4124 45.8477 47.4561 45.8047 47.4124C45.5898 47.1718 43.6133 38.8593 43.7207 38.5749C43.9355 37.9624 46.6641 38.378 48.4902 39.2968ZM66.3008 38.6186C66.3867 38.8593 64.3887 47.1936 64.1953 47.4124C64.1523 47.4561 62.4336 47.4124 60.3926 47.3468L56.6758 47.2155L56.7832 45.9249C57.127 41.9655 61.0801 38.3343 65.0547 38.3124C65.8281 38.3124 66.2148 38.3999 66.3008 38.6186ZM77.8379 38.9686C79.6855 39.6686 81.5762 41.5718 82.5 43.6061C83.209 45.1374 83.2305 45.3124 83.3164 48.4624C83.4023 51.5905 83.4023 51.7218 83.0156 51.5686C82.1562 51.2186 77.8379 49.928 77.0859 49.7968C76.6348 49.7093 76.2266 49.4905 76.1836 49.2718C76.1191 49.0749 75.4746 46.603 74.7656 43.7811C73.7988 39.9093 73.5625 38.6186 73.7559 38.4655C74.1855 38.1811 76.5059 38.4436 77.8379 38.9686ZM40.3906 39.2968C40.3906 39.3624 40.8633 41.2874 41.4648 43.6061C42.0449 45.9249 42.4961 47.828 42.4531 47.8718C42.3457 47.9811 37.4902 48.7686 37.4043 48.6811C37.3398 48.6155 39.3379 40.4124 39.6387 39.4499C39.7246 39.2093 40.3906 39.0561 40.3906 39.2968ZM71.457 43.7811C72.0801 46.253 72.5957 48.3968 72.6172 48.5499C72.6172 48.7249 72.4668 48.7905 72.252 48.7249C72.0371 48.6593 70.9199 48.4624 69.7383 48.2874C68.5781 48.1124 67.5898 47.9374 67.5469 47.8936C67.5039 47.828 67.9551 45.9249 68.5352 43.6061C69.1367 41.2874 69.6094 39.3405 69.6094 39.2749C69.6094 39.2093 69.7598 39.1874 69.9531 39.2311C70.2324 39.2749 70.5977 40.3905 71.457 43.7811ZM19.7441 45.203C21.2051 46.0124 22.4297 47.4343 22.9883 48.9436C23.5254 50.453 23.6113 54.8936 23.0957 56.5999C22.5801 58.3061 21.377 59.728 19.6797 60.6249C18.3477 61.303 18.0254 61.3905 16.5645 61.3686C14.459 61.3468 13.0625 60.7561 11.709 59.2905C10.0117 57.453 9.77539 56.6655 9.77539 52.9686C9.77539 49.8186 9.77539 49.7749 10.4844 48.3311C11.7734 45.6624 13.9004 44.3718 16.8652 44.503C18.2832 44.5686 18.7988 44.678 19.7441 45.203ZM95.8203 44.853C97.4961 45.5093 98.6992 46.6249 99.5156 48.3311C100.225 49.7749 100.225 49.8186 100.225 52.9686C100.225 55.9874 100.203 56.2061 99.623 57.3655C98.3984 59.903 96.1641 61.3686 93.4355 61.3686C91.9746 61.3905 91.6523 61.303 90.3203 60.6249C88.623 59.728 87.4199 58.3061 86.9043 56.5999C86.4102 54.8936 86.4746 50.453 87.0117 48.9655C88.3438 45.378 92.3398 43.4968 95.8203 44.853ZM18.2402 70.0749L19.5938 75.3686L18.541 76.3093C17.9824 76.8343 17.2949 77.4249 17.0371 77.5999C16.5 77.9936 16.457 77.9499 14.373 76.0468L13.5996 75.3249L14.9102 70.053C15.9414 65.9186 16.2852 64.7811 16.5645 64.7811C16.8438 64.7811 17.209 65.9186 18.2402 70.0749ZM95.0898 70.053L96.4004 75.3468L95.498 76.178C95.0039 76.6374 94.3379 77.228 94.0156 77.4905C93.3496 78.0155 93.2852 77.9936 91.459 76.3093L90.4062 75.3686L91.7598 70.0749C92.791 65.9186 93.1562 64.7811 93.4355 64.7811C93.7148 64.7811 94.0586 65.9186 95.0898 70.053Z" fill="#8DC8CF"/>
<path d="M14.1797 10.3125C13.6426 10.8593 13.6211 11.9312 14.1582 12.4781C14.7598 13.0906 15.6406 13.2 18.7774 13.1125C21.4844 13.0468 21.5274 13.0468 22.043 12.4343C22.666 11.6906 22.6875 11.2093 22.1074 10.4437L21.6777 9.87496H18.1328C14.8887 9.87496 14.5664 9.91871 14.1797 10.3125Z" fill="#8DC8CF"/>
<path d="M14.3086 16.0219C13.5352 16.6344 13.5352 17.7719 14.3086 18.3844C14.8457 18.8219 15.1465 18.8438 20.3027 18.8438C25.2871 18.8438 25.7812 18.8 26.2324 18.4281C26.9199 17.8594 26.9199 16.5469 26.2324 15.9781C25.7812 15.6063 25.2871 15.5625 20.3027 15.5625C15.1465 15.5625 14.8457 15.5844 14.3086 16.0219Z" fill="#8DC8CF"/>
<path d="M14.8887 21.4031C13.8145 21.6219 13.3848 23.2844 14.1797 24.0938C14.5879 24.5094 14.8887 24.5312 20.2813 24.5312H25.9746L26.4043 23.9625C26.9844 23.1969 26.9629 22.7156 26.3398 21.9719L25.8242 21.3594L20.582 21.3375C17.7246 21.3156 15.1465 21.3375 14.8887 21.4031Z" fill="#8DC8CF"/>
<path d="M89.0098 23.0875C86.7754 23.8312 85.0352 25.4062 84.0254 27.5719C83.5527 28.6 83.4668 29.1031 83.4668 30.7656C83.4668 32.4719 83.5527 32.9094 84.0898 34.0906C84.8203 35.7094 86.4961 37.4375 88.0215 38.1375C88.8594 38.5312 89.4609 38.6187 91.2012 38.6406C93.1348 38.6406 93.4785 38.575 94.5742 38.0281C96.1426 37.2406 97.5605 35.8187 98.3125 34.2219C99.0645 32.6687 99.2793 30 98.7422 28.4687C98.4629 27.6156 98.4629 27.4625 98.7207 27.1562C99.1934 26.6312 99.1289 25.4937 98.5918 24.9469C98.2266 24.575 97.9473 24.5094 97.1953 24.5969C96.5938 24.6625 96.1855 24.5969 96.0352 24.4219C95.9062 24.2687 95.2188 23.875 94.4668 23.5469C92.877 22.8031 90.4492 22.6062 89.0098 23.0875ZM93.1992 26.5C93.6934 26.7187 94.1016 27.0031 94.1016 27.0906C94.1016 27.2 93.6289 27.7687 93.0273 28.3594C92.0391 29.3437 91.9316 29.3875 91.5879 29.0812C91.373 28.9062 90.9648 28.6219 90.707 28.4687C89.6758 27.9437 88.3008 29.1031 88.5801 30.2625C88.666 30.5687 89.3535 31.4219 90.127 32.1656C91.8672 33.8937 92.1035 33.85 94.2734 31.6844L95.8203 30.1312V30.9844C95.7988 33.4125 93.6719 35.4687 91.2012 35.4687C88.6445 35.4687 86.6035 33.4125 86.582 30.8094C86.5605 27.3531 90.084 25.0562 93.1992 26.5Z" fill="#8DC8CF"/>
</svg>
