<svg width="120" height="119" viewBox="0 0 120 119" fill="none" xmlns="http://www.w3.org/2000/svg">
<path d="M31.6875 7.01914L31.7578 13.8988L32.4609 14.9215C32.8594 15.4561 33.6562 16.1766 34.2188 16.502L35.2734 17.083L57.9609 17.1527L80.625 17.1992V13.527C80.625 10.9471 80.5312 9.50605 80.2734 8.66934C79.8281 7.18184 78.3516 5.5084 76.7812 4.69492L75.5859 4.06738L67.3828 3.92793C62.8828 3.83496 54.4453 3.74199 48.6328 3.74199C42.8438 3.71875 37.3594 3.62578 36.4922 3.50957C34.9219 3.34688 34.8984 3.32363 33.2578 1.71992L31.6172 0.116211L31.6875 7.01914Z" fill="#8DC8CF"/>
<path d="M39.6094 26.0545V30.4938L40.5469 29.3781C42.1172 27.4955 43.8281 23.7535 43.8281 22.1963C43.8281 21.6153 43.8281 21.6153 41.7188 21.6153H39.6094V26.0545Z" fill="#8DC8CF"/>
<path d="M48.2344 23.4049C48.0234 24.4043 47.7656 25.427 47.6953 25.7059C47.5547 26.1475 47.6484 26.2172 48.75 26.3334C50.1563 26.4961 52.2188 27.3793 53.2734 28.2625C54.375 29.1689 55.7344 31.0516 56.0391 32.0975L56.3203 33.0039H60.1641C63.4453 33.0039 63.9844 32.9574 63.9844 32.6553C63.9844 31.958 65.2031 29.9359 66.2344 28.89C67.4766 27.6582 69.7734 26.5426 71.4609 26.3334C72.2109 26.2404 72.6328 26.101 72.5859 25.9383C72.5156 25.7988 72.3047 24.8924 72.0703 23.9395C71.8594 22.9865 71.625 22.0568 71.5781 21.8941C71.5078 21.685 69 21.6152 60.0703 21.6152H48.6328L48.2344 23.4049Z" fill="#8DC8CF"/>
<path d="M76.4766 22.6379C76.7578 24.66 78.2109 27.635 79.9687 29.7732L80.625 30.5635V26.0777V21.6152H78.4922H76.3359L76.4766 22.6379Z" fill="#8DC8CF"/>
<path d="M46.0781 31.0284C41.0625 32.7948 42.6328 40.1393 47.9531 39.6977C52.8516 39.3026 53.5313 32.2137 48.7969 30.9121C47.6719 30.61 47.2031 30.6332 46.0781 31.0284Z" fill="#8DC8CF"/>
<path d="M71.1563 31.0051C69.2813 31.7023 68.2031 33.2596 68.2031 35.3281C68.2031 39.7441 74.0391 41.4176 76.4531 37.6756C77.0625 36.7227 77.1328 36.4438 77.0625 35.0492C76.9922 33.7244 76.875 33.3525 76.2656 32.6088C74.9063 30.9586 72.9609 30.3543 71.1563 31.0051Z" fill="#8DC8CF"/>
<path d="M33.3984 35.7698C32.1797 36.4903 31.8047 37.1178 31.7109 38.4194C31.5703 40.209 32.5312 41.5338 34.2891 41.9522L34.9219 42.1149V38.7215C34.9219 34.9563 34.875 34.8633 33.3984 35.7698Z" fill="#8DC8CF"/>
<path d="M85.3125 38.7215V42.1149L85.9688 41.9754C88.8984 41.2781 89.5078 37.3735 86.9062 35.793C85.3594 34.8633 85.3125 34.933 85.3125 38.7215Z" fill="#8DC8CF"/>
<path d="M55.8281 38.9074C54.4922 41.7197 52.1016 43.5791 49.0547 44.1601C45.75 44.8109 41.8125 43.1142 40.0547 40.3252L39.6094 39.6279V41.8824C39.6094 51.0166 45.4453 58.8957 54.1641 61.5453C59.1094 63.056 64.9688 62.4982 69.5625 60.0578C76.5469 56.4088 80.625 49.6453 80.625 41.7662V39.6744L79.9453 40.5808C77.4141 44.0904 72.6094 45.2757 68.6719 43.4164C66.6562 42.4402 64.6641 40.1392 63.8906 37.815C63.7969 37.5129 63.5625 37.4199 63.1172 37.4664L62.4609 37.5361L62.3906 39.7441L62.3203 41.9754L63.1641 42.2775C64.7578 42.8353 65.1328 44.9736 63.8203 46.0195C63.3281 46.4146 62.8828 46.4843 61.1953 46.4843C59.2734 46.4843 59.1094 46.4379 58.5234 45.8336C57.9141 45.206 57.8906 45.1595 57.8438 41.3711L57.7734 37.5361L57.1641 37.4664C56.6016 37.3966 56.4609 37.5593 55.8281 38.9074ZM57 49.3199C58.7344 50.0172 61.5 50.0172 63.2578 49.2966C64.7109 48.7156 65.5547 48.7853 66.3281 49.622C67.0078 50.3193 67.0547 51.6209 66.4219 52.4576C65.6953 53.4338 63.3516 54.2008 60.6562 54.3402C58.6641 54.4332 58.1484 54.3634 56.4141 53.8521C54.0703 53.1084 53.3203 52.4576 53.3203 51.1328C53.3203 50.2031 53.8828 49.3664 54.7266 49.0177C55.4297 48.7388 55.6641 48.7621 57 49.3199Z" fill="#8DC8CF"/>
<path d="M64.5703 66.5424C64.0547 66.6586 62.0859 66.798 60.1875 66.798L56.7188 66.8213V69.2152V71.5859L61.2422 71.5395L65.7422 71.4697L65.8125 68.8434C65.8359 67.4256 65.7891 66.2402 65.6953 66.2635C65.6016 66.2867 65.0859 66.4029 64.5703 66.5424Z" fill="#8DC8CF"/>
<path d="M21.2109 76.1646C18.1406 76.583 14.7891 78.2797 12.4219 80.6504C9.58594 83.4859 8.13281 86.4842 7.71094 90.3889C7.59375 91.4813 7.5 98.3842 7.5 105.682V119H16.1719H24.8438V109.517C24.8438 99.0582 24.8203 99.2906 26.3438 98.7793C27.3047 98.4771 28.1016 98.7328 28.8047 99.616C29.2969 100.22 29.2969 100.406 29.2969 109.61V119H40.3125H51.3281L51.2109 118.489C51.1172 118.187 48.3516 108.541 45.0469 97.0361L39 76.1182L30.4688 76.0949C25.7578 76.0717 21.6094 76.1182 21.2109 76.1646Z" fill="#8DC8CF"/>
<path d="M43.8281 76.1646C43.8281 76.5597 48.375 92.1785 48.5391 92.3644C48.75 92.5969 55.5937 87.1814 55.4766 86.856C55.4531 86.7398 53.4141 84.2529 50.9766 81.3244L46.5234 76.0019H45.1875C44.4375 76.0019 43.8281 76.0717 43.8281 76.1646Z" fill="#8DC8CF"/>
<path d="M52.7813 76.3971C52.9688 76.6295 54.6797 78.6748 56.5781 80.9293L60.0469 85.0664H61.2422H62.461L66.0938 80.7201C68.086 78.3494 69.7735 76.3041 69.7969 76.1879C69.8438 76.0949 65.9531 76.002 61.1485 76.002C52.875 76.002 52.4531 76.0252 52.7813 76.3971Z" fill="#8DC8CF"/>
<path d="M71.5078 81.3476C69.0469 84.2994 66.9609 86.8328 66.8906 86.9955C66.8437 87.1582 68.3203 88.7851 70.1719 90.6213L73.5469 93.9681L74.039 92.3644C74.2969 91.4812 75.4219 87.5765 76.5469 83.6719C77.6719 79.7672 78.6328 76.4435 78.6797 76.2808C78.7734 76.0717 78.4219 76.0019 77.414 76.0019H76.0078L71.5078 81.3476Z" fill="#8DC8CF"/>
<path d="M77.4609 96.9664C74.1328 108.518 71.3672 118.187 71.2969 118.465L71.2031 119H82.7109H94.2188V110.098C94.2188 104.66 94.3125 100.871 94.4766 100.337C94.9453 98.6166 97.0547 98.1285 98.25 99.4533L98.9062 100.174V109.587V119H105.703H112.523L112.453 103.73L112.383 88.4365L111.656 86.5539C110.062 82.5098 107.367 79.4883 103.734 77.7451C100.43 76.1646 99.1875 76.002 90.75 76.002H83.5078L77.4609 96.9664ZM88.5938 109.936V112.26H84.0234H79.4531V109.936V107.611H84.0234H88.5938V109.936Z" fill="#8DC8CF"/>
<path d="M58.7812 90.3424C58.1484 90.8305 57.6562 91.3883 57.6562 91.6207C57.6562 91.9693 58.125 94.4098 58.4766 95.9205C58.5938 96.4318 58.6875 96.4551 61.2656 96.4551H63.9141L64.3828 94.1541L64.8516 91.8299L63.6562 90.6678C62.5078 89.5289 62.3906 89.4824 61.1719 89.4824C60.0469 89.4824 59.7422 89.5986 58.7812 90.3424Z" fill="#8DC8CF"/>
<path d="M51.9375 95.7578C51.1875 96.3853 50.4141 97.0361 50.25 97.1988C49.9687 97.4545 50.1797 98.4306 51.5625 103.172C52.4531 106.287 53.2266 108.866 53.2734 108.913C53.3203 108.959 53.5781 106.682 53.8594 103.869C54.375 98.8955 54.375 98.6631 53.9766 96.6642C53.7656 95.5254 53.5312 94.5957 53.4609 94.6189C53.3906 94.6189 52.6875 95.1303 51.9375 95.7578Z" fill="#8DC8CF"/>
<path d="M68.4609 96.8967C68.3203 97.5707 68.2031 98.5004 68.2031 98.9652C68.2031 99.8949 69.0938 108.797 69.1875 108.913C69.2344 108.936 69.8906 106.728 70.6875 104.009L72.1172 99.035L70.4063 97.3615L68.7188 95.7113L68.4609 96.8967Z" fill="#8DC8CF"/>
<path d="M58.7344 101.15C58.6406 101.429 56.9297 118.372 56.9531 118.814C56.9531 118.93 58.8984 119 61.2656 119H65.6016L65.4844 118.256C65.3906 117.513 63.75 101.336 63.75 101.034C63.75 100.941 62.6484 100.871 61.2891 100.871C59.5078 100.871 58.7812 100.964 58.7344 101.15Z" fill="#8DC8CF"/>
</svg>
