<svg width="21" height="21" viewBox="0 0 21 21" fill="none" xmlns="http://www.w3.org/2000/svg">
<g clip-path="url(#clip0_1_41)">
<path d="M20.9864 16.7543C20.9196 16.2725 20.6283 15.8571 20.1872 15.6147L15.0064 12.7667C14.3719 12.4179 13.5669 12.5194 13.049 13.0139L12.0286 13.9882C11.757 14.2475 11.3274 14.2704 11.0295 14.0415C10.225 13.4235 9.43292 12.7433 8.67525 12.0198C7.91759 11.2965 7.20519 10.5402 6.55783 9.77213C6.31804 9.48762 6.34203 9.07749 6.61366 8.81819L7.63407 7.8439C8.15194 7.3495 8.25844 6.58104 7.89301 5.97509L4.91011 1.02868C4.65612 0.607509 4.22107 0.329413 3.71644 0.26567C3.21177 0.201797 2.7159 0.362497 2.35596 0.706155L0.818363 2.17424C-0.254794 3.19889 -0.272029 5.07316 0.769833 7.45187C1.77165 9.73909 3.6412 12.2569 6.03402 14.5416C8.42693 16.8262 11.0641 18.6112 13.4597 19.5677C14.6861 20.0573 15.7843 20.302 16.7116 20.3019C17.668 20.3019 18.4425 20.0416 18.9874 19.5213L20.525 18.0532C20.8849 17.7096 21.0531 17.2361 20.9864 16.7543ZM14.667 13.3296L19.8478 16.1776C20.104 16.3184 20.2732 16.5597 20.3119 16.8395C20.3445 17.0743 20.2806 17.3056 20.1357 17.4919L13.2505 13.7402L13.5301 13.4732C13.8309 13.1861 14.2985 13.127 14.667 13.3296ZM3.62718 0.909639C3.92032 0.946664 4.17299 1.10819 4.32049 1.35281L7.30339 6.29922C7.51565 6.65114 7.45378 7.09752 7.15303 7.38462L6.89618 7.62985L2.94508 1.07787C3.10659 0.963682 3.29976 0.901671 3.50114 0.901671C3.54291 0.901671 3.58505 0.904313 3.62718 0.909639ZM18.5063 19.062C17.6537 19.876 15.91 19.8419 13.7222 18.9684C11.4063 18.0437 8.84688 16.3085 6.51515 14.0823C4.18342 11.856 2.36594 9.41232 1.39751 7.20128C0.482551 5.11244 0.446856 3.44758 1.29945 2.63352L2.44091 1.54365L6.39795 8.10554L6.13258 8.35891C5.61484 8.85327 5.56976 9.63585 6.02776 10.1794C6.69036 10.9656 7.41927 11.7394 8.19412 12.4792C8.96907 13.219 9.77948 13.9149 10.6029 14.5476C11.1721 14.9849 11.9918 14.9419 12.5097 14.4475L12.7518 14.2163L19.6465 17.9733L18.5063 19.062Z" fill="white"/>
</g>
<defs>
<clipPath id="clip0_1_41">
<rect width="21" height="20.05" fill="white" transform="translate(0 0.25238)"/>
</clipPath>
</defs>
</svg>
