<svg width="107" height="118" viewBox="0 0 107 118" fill="none" xmlns="http://www.w3.org/2000/svg">
<path d="M9.4043 10.3711C9.02813 10.7859 8.98633 11.1316 8.98633 14.6117C8.98633 19.4746 8.96543 19.4516 11.6822 19.5437L13.584 19.6359V42.1988C13.584 64.4621 13.584 64.7617 14.002 65.2227C14.4199 65.6836 14.6916 65.6836 45.4123 65.6836C73.1236 65.6836 76.4465 65.7297 76.8645 66.0523L77.3242 66.398V76.4234C77.3242 86.1262 77.3451 86.4488 77.7422 86.8867C78.1393 87.3246 78.4318 87.3477 89.1945 87.3477C99.6438 87.3477 100.271 87.3246 100.584 86.9328C100.898 86.541 100.939 85.2965 100.939 73.6809C100.939 61.3047 100.919 60.8207 100.501 59.5992C99.9154 57.8246 98.4943 56.1883 96.8016 55.2664L95.4014 54.5059L87.2928 54.4367L79.1633 54.3676L71.8279 49.0438C65.015 44.1117 63.385 43.0977 62.1729 43.0977C61.2533 43.0977 59.5397 43.8352 58.8082 44.5266C56.6348 46.6238 56.5721 50.4496 58.6619 52.5699C58.9754 52.9156 61.9848 55.1742 65.3076 57.6172C68.6514 60.0602 71.4518 62.1344 71.5772 62.2496C71.6816 62.3648 59.9785 62.457 44.1375 62.457H16.5098V41.0234V19.5898H53.5H90.4902V27.3105V35.0312L89.926 34.8699C89.5916 34.7547 88.4422 34.6855 87.3555 34.6855C85.5582 34.6855 85.2447 34.7547 83.9699 35.423C82.1727 36.368 80.7307 37.9352 79.8111 39.9863C79.1424 41.5074 79.1006 41.7148 79.1006 44.0195C79.1006 46.3242 79.1424 46.5316 79.8111 48.0527C80.7098 50.0578 82.11 51.5789 83.949 52.593C85.2865 53.3074 85.4955 53.3535 87.5645 53.3535C89.5916 53.3535 89.8633 53.3074 91.159 52.616C92.998 51.6711 94.5027 50.0117 95.3596 47.9836C95.9865 46.5547 96.0283 46.2551 96.0283 44.0195C96.0283 41.8531 95.9656 41.4613 95.4432 40.2398C95.1297 39.4793 94.5445 38.4191 94.1475 37.8891L93.416 36.9211V28.2785V19.6359L95.3178 19.5437C98.0346 19.4516 98.0137 19.4746 98.0137 14.6117C98.0137 11.1316 97.9719 10.7859 97.5957 10.3711C97.1777 9.91016 96.9061 9.91016 53.5 9.91016C10.094 9.91016 9.82227 9.91016 9.4043 10.3711ZM95.0879 14.75V16.3633H53.5H11.9121V14.75V13.1367H53.5H95.0879V14.75ZM90.3439 38.5574C92.1412 39.7328 93.1861 41.6688 93.207 43.8121C93.207 46.3473 92.2248 48.2371 90.2604 49.4355C89.2781 50.0348 88.9229 50.127 87.5645 50.127C85.7463 50.1039 84.785 49.666 83.5729 48.2371C82.5697 47.0848 82.11 46.0707 81.9846 44.6187C81.7129 41.784 83.2594 39.1336 85.7881 38.0734C86.1434 37.9121 87.0838 37.843 87.8988 37.8891C89.0691 37.9352 89.6125 38.0965 90.3439 38.5574ZM63.1133 46.6699C63.4477 46.8543 66.7914 49.2512 70.5322 51.9707C74.273 54.6902 77.5332 57.041 77.8049 57.2023C78.1393 57.4328 80.3754 57.525 86.624 57.6172C95.7566 57.7324 95.5268 57.7094 96.8434 59.1613C98.0137 60.4289 98.0137 60.3137 98.0137 72.7129V84.1211H96.2373H94.4609V76.0777V68.0113L94.0012 67.6656C93.3533 67.1586 92.5174 67.2047 92.0367 67.7809C91.6606 68.2418 91.6396 68.7719 91.577 76.193L91.5143 84.1211H85.8926H80.25V75.0637C80.25 66.6285 80.2082 65.9602 79.832 65.0383C79.4559 64.1395 78.7871 63.5863 70.177 57.3176C65.0777 53.584 60.7309 50.3113 60.501 50.0348C59.665 48.9977 60.1248 47.0848 61.3369 46.5316C61.9639 46.2551 62.4445 46.3012 63.1133 46.6699Z" fill="#8DC8CF"/>
<path d="M20.585 24.084C20.2924 24.3836 20.0625 24.8445 20.0625 25.1211C20.0625 25.3746 20.2924 25.8586 20.585 26.1582L21.0865 26.7344H45.4541H69.8217L70.3232 26.1582C70.6158 25.8586 70.8457 25.3977 70.8457 25.1211C70.8457 24.8445 70.6158 24.3836 70.3232 24.084L69.8217 23.5078H45.4541H21.0865L20.585 24.084Z" fill="#8DC8CF"/>
<path d="M20.5849 32.1504C19.958 32.8418 19.9371 33.3949 20.5013 34.2016L20.9193 34.8008H36.4887C51.7654 34.8008 52.0371 34.8008 52.4551 34.3398C53.0611 33.6715 52.9984 32.6344 52.3297 32.0582C51.7863 31.5742 51.64 31.5742 36.426 31.5742H21.0865L20.5849 32.1504Z" fill="#8DC8CF"/>
<path d="M20.5013 38.6266C19.9371 39.4332 19.958 39.9863 20.5849 40.6777L21.0865 41.2539H36.426C51.64 41.2539 51.7863 41.2539 52.3297 40.7699C52.9984 40.1938 53.0611 39.1566 52.4551 38.4883C52.0371 38.0273 51.7654 38.0273 36.4887 38.0273H20.9193L20.5013 38.6266Z" fill="#8DC8CF"/>
<path d="M20.9611 44.4805C20.0416 44.8953 19.7908 46.2551 20.4805 47.0156C20.8984 47.4766 21.1701 47.4766 32.6643 47.4766C43.615 47.4766 44.4719 47.4535 44.7854 47.0617C45.4332 46.2551 45.2451 44.9414 44.4092 44.5266C43.7613 44.2039 21.6926 44.1578 20.9611 44.4805Z" fill="#8DC8CF"/>
<path d="M20.5013 51.3023C19.9371 52.109 19.958 52.6621 20.5849 53.3535L21.0865 53.9297H28.0039C34.6287 53.9297 34.9213 53.9066 35.3183 53.4688C35.5482 53.2152 35.7363 52.7082 35.7363 52.3164C35.7363 51.9246 35.5482 51.4176 35.3183 51.1641C34.9213 50.7262 34.6287 50.7031 27.9203 50.7031H20.9193L20.5013 51.3023Z" fill="#8DC8CF"/>
<path d="M20.9611 68.4492C18.5369 68.9793 16.1754 71.0535 15.0051 73.6809C14.3572 75.1559 14.3154 75.3633 14.3154 77.7832C14.3154 80.1109 14.3572 80.4336 14.9215 81.7012C15.7156 83.4758 17.5129 85.4578 19.1221 86.3336C20.2715 86.9559 20.5641 87.002 22.6748 87.002C24.8691 87.002 25.0572 86.9559 26.3947 86.2414C31.7447 83.3375 32.9359 75.709 28.7771 71.1227C26.6455 68.7719 23.8869 67.827 20.9611 68.4492ZM24.4512 71.8141C26.5619 72.5055 28.4219 75.248 28.4219 77.668C28.4219 79.65 27.1471 82.093 25.6006 83.107C24.3049 83.9367 22.1523 84.1441 20.7521 83.5449C16.4053 81.7012 15.8201 75.0176 19.7699 72.4594C21.4 71.3992 22.6748 71.2379 24.4512 71.8141Z" fill="#8DC8CF"/>
<path d="M55.6108 68.5876C51.0131 69.9474 48.2545 75.0177 49.4039 79.9728C50.0936 82.9227 51.6192 84.9509 54.127 86.2645C55.8824 87.1864 58.4738 87.3938 60.2084 86.7716C62.6535 85.8727 64.3881 84.1903 65.4957 81.586C66.0809 80.2263 66.1436 79.8806 66.1436 77.7833C66.1227 74.8333 65.642 73.3813 64.0537 71.4685C61.7758 68.772 58.6201 67.6888 55.6108 68.5876ZM60.0203 72.0907C61.2324 72.6669 62.2356 73.8192 62.8625 75.3403C63.3014 76.3774 63.3641 76.8153 63.2805 78.106C63.0506 81.5399 60.7727 83.8907 57.6797 83.8907C55.4436 83.8677 53.6672 82.6692 52.6641 80.5028C51.9535 79.0048 51.9326 76.4005 52.6014 75.0177C54.0852 71.9755 57.2408 70.731 60.0203 72.0907Z" fill="#8DC8CF"/>
<path d="M18.5996 88.0621C16.4471 88.3617 13.1451 89.1914 12.142 89.6754C10.7209 90.3668 9.55058 91.5422 8.84003 93.0402C8.33847 94.0774 7.9623 95.6445 7.12636 100.093C6.54121 103.227 6.06054 106.154 6.06054 106.569C6.06054 108.182 5.03652 108.09 22.7375 108.09H38.6412L39.0801 107.583C39.31 107.306 39.498 106.938 39.498 106.776C39.498 105.762 37.1365 94.1234 36.7812 93.3168C36.1125 91.8879 34.775 90.4129 33.5629 89.7906C30.5744 88.2465 23.2391 87.3938 18.5996 88.0621ZM28.9443 91.7266C30.1982 92.0031 31.5566 92.3719 31.9746 92.5563C32.8523 92.9711 33.96 94.1004 34.2525 94.9301C34.4406 95.4141 36.1543 104.31 36.1543 104.748C36.1543 104.817 30.0728 104.863 22.6539 104.863C9.90586 104.863 9.17441 104.84 9.2789 104.448C9.3416 104.241 9.73867 102.19 10.1566 99.9082C10.5746 97.6266 11.0762 95.3219 11.2852 94.7918C12.0166 92.9481 13.4586 92.2336 18.2861 91.3578C20.773 90.8969 26.0603 91.0813 28.9443 91.7266Z" fill="#8DC8CF"/>
<path d="M52.9775 88.1543C50.01 88.6613 47.4186 89.3988 46.4781 89.998C45.2451 90.8047 43.7613 92.6945 43.3852 93.9852C43.009 95.1836 40.9609 106.016 40.9609 106.707C40.9609 106.961 41.149 107.375 41.3789 107.629C41.7969 108.09 42.0686 108.09 57.7424 108.09C72.9355 108.09 73.7297 108.067 74.0432 107.675C74.2521 107.445 74.3984 106.984 74.3984 106.638C74.3984 105.416 72.2668 94.5613 71.7861 93.432C71.1801 91.9109 69.8426 90.459 68.4633 89.7445C67.8781 89.468 66.2271 88.9379 64.7852 88.6152C61.5041 87.8547 55.9451 87.6473 52.9775 88.1543ZM64.3672 91.8418C67.2094 92.5102 68.2125 93.0402 68.923 94.3078C69.1947 94.7688 69.6963 96.9121 70.2605 99.9082L71.1801 104.748L57.8051 104.817C50.4697 104.84 44.4092 104.817 44.3465 104.748C44.2838 104.702 44.6391 102.536 45.1197 99.9773C46.1437 94.4461 46.4781 93.6625 48.1082 92.7867C49.0277 92.3027 51.6191 91.6344 54.4404 91.1734C54.7957 91.1273 56.5721 91.1043 58.4111 91.1504C61.0652 91.1965 62.2982 91.3578 64.3672 91.8418Z" fill="#8DC8CF"/>
</svg>
