<svg width="109" height="108" viewBox="0 0 109 108" fill="none" xmlns="http://www.w3.org/2000/svg">
<path d="M22.0342 0.463886C21.2252 0.695918 20.5014 0.927949 20.4588 0.970137C20.3737 1.05451 23.8438 14.6389 24.0567 14.9764C24.1631 15.1451 24.5889 15.1029 25.6746 14.8498C26.4836 14.66 27.2287 14.4279 27.3139 14.3436C27.4629 14.217 24.7166 2.95295 23.9289 0.358418C23.8012 -0.0634575 23.9076 -0.0845509 22.0342 0.463886Z" fill="#8DC8CF"/>
<path d="M75.6187 0.759262C74.8736 1.26551 74.7459 1.66629 74.1924 5.48426C73.8943 7.46707 73.5537 9.28114 73.4473 9.51317C73.0641 10.2093 72.2551 10.5889 71.5312 10.4413C70.9777 10.3147 70.4242 9.70301 68.423 7.06629C65.8471 3.6491 65.2723 3.18504 64.2291 3.56473C63.9098 3.69129 62.4408 4.70379 60.9506 5.82176L58.2256 7.84676L56.2883 7.7202C50.668 7.3827 44.5367 8.69051 39.2357 11.3483C35.8508 13.0358 33.2535 14.9132 30.5498 17.6132C24.9082 23.203 21.6084 29.9319 20.6078 37.7788C20.3736 39.7616 20.3311 39.8671 19.8414 39.8671C19.5646 39.8671 19.075 40.1202 18.7557 40.4366C18.266 40.9428 18.0744 41.4913 17.5635 44.0225C17.2229 45.6889 16.8609 47.0389 16.7545 47.0389C16.6693 47.0389 15.4771 46.2585 14.0934 45.3092C10.5168 42.8202 10.7936 42.7569 6.8125 46.7436C4.10879 49.4225 3.61914 50.0132 3.61914 50.5405C3.61914 51.0046 4.15137 51.9327 5.42871 53.81C6.4293 55.2444 7.23828 56.4678 7.23828 56.5311C7.23828 56.5944 5.87578 56.9319 4.21523 57.2694C1.63926 57.7757 1.08574 57.9655 0.596094 58.4507L0 59.0202V63.1757V67.3311L0.596094 67.9007C1.08574 68.3858 1.63926 68.5757 4.15137 69.0819C5.79062 69.4194 7.17441 69.7147 7.21699 69.7569C7.28086 69.7991 6.47187 71.0647 5.45 72.5624C3.76816 75.0093 3.57656 75.3467 3.7043 75.9796C3.81074 76.528 4.53457 77.3717 6.87637 79.6921C10.8148 83.5944 10.5168 83.5311 14.0295 81.1264C15.4984 80.135 16.7332 79.3124 16.8184 79.3124C16.8822 79.3124 17.2229 80.6624 17.5635 82.3077C18.0744 84.86 18.266 85.4085 18.7557 85.8936L19.3305 86.4842H23.5244H27.7184L28.2932 85.8936C28.7828 85.4085 28.9744 84.86 29.4853 82.3077C29.826 80.6624 30.1666 79.3124 30.2305 79.3124C30.3156 79.3124 31.5504 80.135 33.0193 81.1264C36.3191 83.3835 36.4256 83.3835 38.6609 81.1897L40.1937 79.6921L40.2789 83.0249C40.3428 85.8936 40.4279 86.5264 40.8111 87.3702C41.4072 88.678 42.2162 89.6905 43.1104 90.3022L43.8342 90.7874L43.898 96.6092L43.9619 102.41L44.558 103.676C45.3244 105.321 46.5805 106.565 48.1984 107.304C49.4758 107.873 49.5822 107.894 53.9678 107.958C58.8217 108.042 60.4609 107.852 61.8447 107.051C63.1221 106.312 64.293 105.068 64.9103 103.781C65.4639 102.621 65.4639 102.579 65.5277 96.7147L65.6129 90.8085L66.4432 90.2178C66.9115 89.9014 67.5715 89.1842 67.9334 88.6358C69.0404 86.9061 69.1895 86.0202 69.1895 81.2108C69.1895 74.2288 69.8281 72.7733 74.1711 69.7147C77.0238 67.7108 77.5773 67.2046 77.3644 66.8249C77.258 66.6561 76.7471 66.0233 76.1936 65.4538L75.2355 64.378L74.4904 64.9897C74.1072 65.3272 72.8725 66.2342 71.7867 67.0147C68.6785 69.2085 67.1457 71.1491 66.1664 74.0389C65.7619 75.2413 65.698 76.0639 65.5916 80.7046L65.4639 85.9991L64.8678 86.7585C63.7395 88.2139 63.9736 88.1928 54.5426 88.1296L46.0908 88.0663L45.3883 87.5811C44.0471 86.6108 43.9832 86.3155 43.8342 80.3671C43.7064 74.3342 43.5361 73.5538 41.9607 71.1491C40.9176 69.5671 39.9383 68.6178 37.4688 66.8671C34.8289 64.9897 33.4664 63.8296 31.6781 61.8678C27.9525 57.7967 25.3766 52.5655 24.2482 46.7225C23.8012 44.4655 23.865 38.1163 24.3547 35.8593C26.3133 26.7889 31.6994 19.4272 39.5125 15.1452C43.6 12.9093 47.7939 11.6647 52.6479 11.285C54.2232 11.1585 54.2871 11.1796 54.2871 11.6014C54.2871 12.2343 54.5 12.5928 56.9695 15.8624C59.2475 18.8999 59.5668 19.6382 58.9068 20.4819C58.2469 21.3257 57.885 21.3468 53.7549 20.7561C49.4119 20.1444 48.8158 20.1866 48.3475 21.2624C47.9643 22.085 46.5166 32.4843 46.6869 33.1592C46.9424 34.1085 47.6449 34.3827 51.4131 34.9311C53.3504 35.2053 55.1812 35.5007 55.4793 35.5639C56.565 35.8382 56.9908 37.3991 56.2457 38.3061C56.0541 38.5592 54.5213 39.7616 52.882 40.985C49.859 43.221 49.6035 43.4952 49.6035 44.4022C49.6035 44.9718 56.3309 54.0421 57.0334 54.4007C57.9488 54.8858 58.5023 54.6538 61.6744 52.3124C63.3988 51.0257 65.0381 49.9288 65.2936 49.8655C65.9961 49.6757 66.9115 50.0553 67.2734 50.6671C67.5502 51.1733 67.5289 51.6163 67.0818 54.7803C66.8264 56.721 66.6348 58.7038 66.6773 59.1468C66.7838 60.5389 67.1883 60.6866 72.8299 61.4882C78.7482 62.353 79.6637 62.3952 80.2598 61.8046C80.7707 61.2983 80.792 61.235 81.4307 56.8475C81.899 53.5569 81.9842 53.2194 82.4951 52.7764C83.0486 52.3124 83.7299 52.1858 84.4111 52.4389C84.6027 52.5233 85.7736 53.9155 87.0084 55.5608C88.2432 57.185 89.4353 58.7038 89.6695 58.8936C90.6701 59.7585 91.2236 59.5053 96.2266 55.7928C100.953 52.2702 101.506 51.7218 101.251 50.7303C101.187 50.4772 100.101 48.9163 98.8238 47.2288C97.5465 45.5413 96.4395 43.9803 96.3543 43.7272C96.1627 43.1155 96.5246 42.2718 97.1846 41.8499C97.7168 41.5124 97.951 41.5124 101.762 42.0397C105.892 42.6093 106.467 42.6093 107.063 41.8921C107.318 41.5967 108.979 31.3452 109 30.0163C109 29.7632 108.787 29.2991 108.532 29.0038C108.085 28.4975 107.723 28.4132 103.912 27.8647C101.379 27.485 99.6967 27.1475 99.5051 26.9577C99.0154 26.4725 98.8025 25.4178 99.0793 24.8694C99.207 24.5952 100.612 23.3928 102.188 22.2116C105.381 19.8069 106.02 19.1952 106.02 18.4569C106.02 18.1194 104.87 16.4108 102.805 13.6686C98.7387 8.26863 98.6961 8.22645 97.6955 8.22645C97.0143 8.22645 96.4395 8.56395 93.7357 10.5468C92.0113 11.8335 90.3721 12.9304 90.1166 12.9936C89.3928 13.1835 88.4773 12.635 88.2219 11.8546C88.0516 11.3061 88.1154 10.4202 88.4986 7.84676C89.0947 3.69129 89.0947 3.3116 88.5199 2.6366C88.0516 2.10926 87.7322 2.04597 82.2822 1.26551C79.1314 0.801445 76.4277 0.421761 76.3213 0.421761C76.1936 0.421761 75.8742 0.569412 75.6187 0.759262ZM85.0924 5.3577C85.1562 5.39989 85.0285 6.51785 84.8369 7.84676C84.326 11.2429 84.3686 12.3608 85.0285 13.6475C86.3271 16.221 89.5631 17.3389 92.0752 16.0944C92.4158 15.9046 93.757 15.0186 95.0131 14.0694C96.2691 13.1413 97.3336 12.4241 97.3762 12.4663C98.2277 13.5421 101.379 17.7819 101.442 17.9929C101.506 18.1405 100.655 18.8999 99.5051 19.7225C96.1414 22.1483 95.3324 23.3085 95.3324 25.6288C95.3111 27.7803 96.5885 29.6788 98.5258 30.5014C98.9516 30.6702 100.591 31.0077 102.166 31.2397C103.742 31.4507 105.062 31.6827 105.104 31.7038C105.125 31.746 104.912 33.2858 104.636 35.121C104.338 36.9772 104.104 38.5592 104.104 38.6225C104.104 38.6858 102.89 38.5592 101.4 38.3483C99.8883 38.1163 98.1852 37.9897 97.5891 38.0319C94.3744 38.3483 92.1816 41.3014 92.8203 44.4444C93.0119 45.3725 93.4377 46.0686 94.9705 48.1147C96.0137 49.4858 96.8652 50.6671 96.8652 50.7093C96.8652 50.7514 95.5879 51.7428 94.0125 52.903L91.1598 55.0335L89.265 52.5655C86.8381 49.4014 86.0078 48.8319 83.6873 48.8319C81.75 48.853 80.7068 49.296 79.5359 50.6671C78.6205 51.7218 78.2586 52.8608 77.8967 55.835C77.7477 57.0163 77.5773 58.0921 77.4922 58.2397C77.3644 58.4085 76.4703 58.3663 73.8943 58.0077C69.9346 57.4382 70.2965 57.8178 70.7861 54.6327C71.2545 51.553 71.2119 50.4561 70.5094 49.1272C69.4449 47.1233 67.4437 46.0264 65.2297 46.2585C63.8246 46.4061 63.2072 46.7225 60.5035 48.7475L58.2682 50.4139L56.1818 47.6296C55.0109 46.1108 54.0742 44.7819 54.0742 44.7186C54.0742 44.6343 55.1174 43.7694 56.416 42.8202C57.6934 41.8499 58.992 40.7108 59.29 40.2889C61.0783 37.7155 60.3119 34.1507 57.6082 32.5897C56.9057 32.1889 55.9477 31.9569 53.6271 31.5983C51.9453 31.3663 50.5402 31.1343 50.4977 31.1132C50.3912 31.0288 51.3492 24.3843 51.4982 24.2155C51.5621 24.1311 52.9246 24.2577 54.5 24.4897C58.332 25.0382 59.6732 24.785 61.2912 23.1819C62.2705 22.2116 62.6324 21.3679 62.7602 19.8069C62.8879 18.0139 62.5047 17.1702 60.3545 14.3436C59.4604 13.1835 58.7578 12.1288 58.8004 12.0233C58.8643 11.8546 64.1865 7.80457 64.3781 7.80457C64.4207 7.80457 65.2723 8.90144 66.2941 10.2304C67.2947 11.5593 68.4869 12.8882 68.934 13.1624C71.1906 14.6179 73.8518 14.3014 75.8316 12.3397C76.7896 11.3694 77.1516 10.3569 77.5986 7.17176C77.7902 5.84285 77.9818 4.64051 78.0244 4.51395C78.067 4.3452 79.1527 4.42957 81.5584 4.78816C83.4531 5.06239 85.0498 5.31551 85.0924 5.3577ZM21.8 51.2366C21.9916 51.8694 22.1406 52.4178 22.1406 52.4389C22.1406 52.46 21.6297 52.6077 21.0336 52.7342C16.6693 53.7467 13.1779 57.6913 12.667 62.1632C12.2199 65.9389 14.3701 70.2632 17.6273 72.2249C22.7793 75.3257 29.1447 73.9967 32.4658 69.1241L33.1471 68.1116L33.7645 68.6178C34.1051 68.871 35.0205 69.546 35.7869 70.0944C37.4688 71.2546 38.7461 72.6467 39.3848 73.9757L39.8531 74.946L37.9158 76.8655L35.9998 78.7639L33.8496 77.3296C32.6574 76.528 31.3375 75.7897 30.8904 75.6842C29.4002 75.3046 27.7184 76.1061 26.952 77.5827C26.8029 77.8991 26.441 79.228 26.1643 80.5147L25.6746 82.8983H23.5031H21.3529L20.991 81.1053C20.2246 77.2663 19.5859 76.2327 17.6699 75.7264C16.4352 75.3889 15.6049 75.7053 13.1566 77.3507L11.049 78.7639L9.43105 77.1397L7.7918 75.5366L9.23945 73.4272C10.0271 72.2671 10.7723 70.9592 10.8574 70.5163C11.2832 68.7444 10.1336 66.8882 8.28144 66.3608C7.70664 66.1921 6.40801 65.8757 5.42871 65.6858L3.61914 65.3272V63.1757V61.0241L6.00352 60.5389C7.32344 60.2858 8.66465 59.9483 8.9627 59.7796C10.3465 59.0835 11.198 57.2905 10.8787 55.8772C10.7723 55.4553 10.0697 54.1686 9.28203 53.0507C8.51562 51.9327 7.87695 50.9413 7.87695 50.8569C7.87695 50.7936 8.60078 50.0132 9.47363 49.1483L11.049 47.5874L13.2844 49.1061C15.7113 50.7303 16.499 51.0046 17.7977 50.646C19.224 50.2663 20.2033 49.085 20.5439 47.3553C20.7143 46.5116 20.7143 46.5327 21.0762 48.3046C21.2891 49.296 21.6084 50.6038 21.8 51.2366ZM24.1844 57.2061C25.4191 59.6319 26.8029 61.6147 29.1447 64.3147L30.3156 65.6436L29.8047 66.5928C29.1234 67.8796 27.4629 69.2928 26.0152 69.8202C25.0359 70.1999 24.4824 70.2632 23.0986 70.1999C20.2459 70.0522 18.2447 68.6811 16.9887 66.0655C16.3926 64.821 16.35 64.61 16.4352 62.9014C16.499 61.5936 16.6693 60.7921 17.01 60.096C18.0744 57.8811 20.5652 56.1725 22.8219 56.1303C23.5883 56.1092 23.6521 56.1725 24.1844 57.2061ZM61.9512 93.5507V95.3436H54.7129H47.4746V93.6983C47.4746 92.7913 47.5385 91.9686 47.6236 91.9053C47.6875 91.821 50.9447 91.7577 54.8619 91.7577H61.9512V93.5507ZM61.9512 100.237C61.9512 101.862 61.3977 103.064 60.3119 103.781C59.5455 104.308 59.4391 104.308 54.9471 104.372C49.7738 104.435 49.4332 104.351 48.2623 102.916C47.7939 102.326 47.6236 101.84 47.5385 100.87C47.3469 98.7608 46.7082 98.9296 54.8193 98.9296H61.9512V100.237Z" fill="#8DC8CF"/>
<path d="M74.8098 17.4023C70.403 18.3515 66.7838 21.1781 64.8465 25.1437C63.7182 27.4851 63.3776 28.9828 63.3776 31.5351C63.3989 35.3742 64.8039 38.6859 67.5928 41.4703C69.0405 42.9047 69.6578 43.3476 71.3397 44.1492C73.9582 45.3937 75.193 45.6679 78.0244 45.6468C79.9192 45.6258 80.6856 45.5203 82.0694 45.0773C86.0291 43.7906 88.9883 41.2172 90.8192 37.4625C93.5229 31.9148 92.0965 24.9539 87.4342 20.7773C85.8375 19.3429 82.8783 17.8242 80.792 17.4023C78.9612 17.0226 76.5555 17.0226 74.8098 17.4023ZM80.3237 20.9883C84.177 21.9797 87.2426 24.9961 88.2645 28.7929C89.2225 32.2734 88.0729 36.2812 85.3479 38.9812C81.0901 43.2 74.4266 43.1578 70.1262 38.9179C65.8471 34.6781 65.8897 28.0547 70.2114 23.857C73.0215 21.1359 76.7684 20.0601 80.3237 20.9883Z" fill="#8DC8CF"/>
<path d="M5.83322 11.2851C5.301 12.0444 4.87522 12.6984 4.91779 12.7405C5.6842 13.3312 17.1803 21.3679 17.3506 21.4312C17.5635 21.5155 19.7137 18.8155 19.5434 18.6679C19.0537 18.246 7.13186 9.91398 7.00412 9.91398C6.91897 9.91398 6.38674 10.5257 5.83322 11.2851Z" fill="#8DC8CF"/>
<path d="M39.8531 21.4099C34.7863 25.0802 31.1885 30.6067 29.9324 36.7028C27.9525 46.3638 31.9549 56.3411 40.1299 62.1208C41.0666 62.7958 43.2806 64.0192 45.0264 64.863C47.9642 66.2763 48.3474 66.5294 49.6461 67.8794C51.264 69.588 52.2859 71.5075 52.6265 73.4692C53.031 75.9794 52.7969 75.7263 54.7767 75.7263H56.5437L56.3947 74.2919C56.1818 72.3513 56.0115 71.6341 55.3515 70.031C54.6064 68.1958 53.4781 66.5294 51.9879 65.095C50.3486 63.513 49.5822 63.0067 46.6443 61.6356C43.451 60.1591 41.7053 59.02 39.7467 57.1638C36.1488 53.7888 33.7857 49.0638 33.1896 44.0856C32.3381 36.6606 35.6166 29.0036 41.5775 24.6161C42.3652 24.0466 43.0039 23.4981 43.0039 23.3927C43.0039 23.245 41.3008 20.4607 41.2156 20.4607C41.1943 20.4607 40.5769 20.8825 39.8531 21.4099Z" fill="#8DC8CF"/>
<path d="M9.00527 29.1723C5.2371 30.1216 2.10761 30.9653 2.02246 31.0286C1.89472 31.1763 2.53339 33.9606 2.76757 34.2348C2.87402 34.3614 15.5836 31.3872 16.9674 30.902C17.2867 30.7966 16.4352 27.4216 16.0945 27.4427C15.9668 27.4427 12.7734 28.2442 9.00527 29.1723Z" fill="#8DC8CF"/>
<path d="M89.2012 68.6602V70.4531H95.4814H101.762V68.6602V66.8672H95.4814H89.2012V68.6602Z" fill="#8DC8CF"/>
<path d="M87.2851 77.5403C86.6678 78.2997 86.242 78.9958 86.3484 79.0802C86.4549 79.1646 88.8818 81.1685 91.7345 83.531L96.9504 87.813L98.0787 86.5685C98.6961 85.8935 99.207 85.2606 99.207 85.1763C99.207 85.0497 90.6701 77.8989 88.7541 76.4224C88.4773 76.1903 88.2431 76.3591 87.2851 77.5403Z" fill="#8DC8CF"/>
<path d="M53.0098 81.9492V84.5859H54.8193H56.6289V81.9492V79.3125H54.8193H53.0098V81.9492Z" fill="#8DC8CF"/>
<path d="M78.3438 87.3281V93.6562H80.1533H81.9629L81.9203 87.3703L81.8564 81.1055L80.1107 81.0422L78.3438 80.9789V87.3281Z" fill="#8DC8CF"/>
</svg>
