<svg width="89" height="94" viewBox="0 0 89 94" fill="none" xmlns="http://www.w3.org/2000/svg">
<path d="M21.9371 0.385559C20.8246 0.973057 20.3553 1.74415 19.9033 3.8004C19.3992 5.98517 18.9994 7.03165 17.9912 8.62891C15.8531 12.007 12.2027 14.3938 7.94394 15.1649C7.0748 15.3301 6.15351 15.5688 5.89277 15.6973C5.21484 16.0828 4.38046 17.166 4.25878 17.8637C4.18925 18.1941 4.17187 23.2246 4.22402 29.0262C4.29355 38.4262 4.3457 39.8031 4.65859 41.8227C4.88456 43.3098 5.11054 44.191 5.30175 44.4297C5.71894 44.9254 6.67499 44.907 7.14433 44.4113C7.56152 43.9707 7.56152 44.3012 7.02265 40.0234C6.69238 37.5816 6.4664 18.8184 6.74452 18.3961C6.83144 18.2492 7.6832 17.9738 8.62187 17.7719C12.3592 16.9824 15.1404 15.5688 17.6783 13.1453C19.8512 11.0524 21.5721 7.94962 22.2848 4.86525C22.4934 3.94728 22.7367 3.10275 22.8236 2.97423C22.9453 2.80899 27.4996 2.75392 44.5 2.75392C61.5004 2.75392 66.0547 2.80899 66.1764 2.97423C66.2633 3.10275 66.5066 3.94728 66.7152 4.86525C67.1846 6.97657 68.523 9.82227 69.7746 11.4195C72.4689 14.8527 76.5887 17.2211 81.0561 17.9004C81.508 17.9738 82.0121 18.1574 82.1338 18.3043C82.3598 18.5246 82.3945 19.8281 82.3945 26.5844C82.3945 34.7543 82.2555 38.0039 81.7688 41.5473C81.5254 43.3649 81.5254 43.5852 81.7688 43.9891C82.2729 44.7785 83.3854 44.7969 83.8547 44.0074C83.9938 43.7871 84.2371 42.5754 84.4109 41.3086C84.6717 39.3992 84.7238 37.3063 84.7934 28.6406C84.8281 21.5356 84.7934 18.0656 84.6717 17.6066C84.5674 17.2211 84.1676 16.6336 83.7852 16.2848C83.0898 15.6055 82.8117 15.4953 80.3955 15.018C76.5713 14.2285 73.0252 11.8234 71.0088 8.64727C70.0006 7.03165 69.6008 5.98517 69.0967 3.8004C68.6447 1.74415 68.1754 0.954697 67.0455 0.385559C66.298 1.14441e-05 66.298 1.14441e-05 44.4826 1.14441e-05H22.6846L21.9371 0.385559Z" fill="#8DC8CF"/>
<path d="M27.0303 6.6094C25.9352 7.16018 25.6396 7.50901 24.6141 9.43674C23.293 11.9153 22.1805 13.4207 20.39 15.2567C18.5648 17.111 16.4963 18.5981 14.0279 19.8282C11.942 20.8746 11.2641 21.4071 10.7252 22.4719C10.3428 23.2063 10.3428 23.3715 10.3428 29.6504C10.3602 36.2047 10.4818 38.0039 11.1424 42.043C14.0279 59.6129 24.701 74.9797 40.6932 84.6367C44.5174 86.9317 44.7086 86.9133 49.7844 83.7188C63.4647 75.0899 73.3729 61.4672 77.0059 46.2657C78.3096 40.8313 78.6398 37.4715 78.6398 29.5586C78.6572 23.7203 78.6398 23.1696 78.327 22.5821C77.7533 21.4254 77.1275 20.9114 75.1111 19.9016C72.4863 18.5981 70.4699 17.1477 68.61 15.2567C66.8195 13.4207 65.707 11.9153 64.3859 9.43674C63.3604 7.50901 63.0648 7.16018 61.9697 6.6094C61.2918 6.26057 60.666 6.24221 44.5 6.24221C28.334 6.24221 27.7082 6.26057 27.0303 6.6094ZM60.9963 9.06956C61.3092 9.25315 61.7438 9.85901 62.2479 10.8688C64.6119 15.5504 68.5057 19.4426 73.3207 21.9762C74.6766 22.6739 75.7543 23.3715 75.9107 23.6102C76.1367 23.9957 76.1715 24.9137 76.0846 30.7153C75.9977 37.8571 75.8412 39.6196 74.833 44.3196C71.8258 58.493 62.891 71.6016 50.4102 80.1387C47.8723 81.8828 45.0215 83.5352 44.5348 83.5352C44.0307 83.5352 43.2311 83.1129 40.4498 81.3504C27.1693 72.9969 17.6262 59.6496 14.2539 44.7051C13.2109 40.1153 13.0023 37.9672 12.9154 30.7153C12.8285 24.7668 12.8459 23.9957 13.1066 23.5918C13.2805 23.3164 14.0975 22.784 15.1926 22.2332C20.2684 19.718 24.3707 15.6606 26.7348 10.8688C27.2041 9.91409 27.6561 9.27151 27.9516 9.08791C28.6469 8.70237 60.2662 8.68401 60.9963 9.06956Z" fill="#8DC8CF"/>
<path d="M62.0566 21.15C61.3613 21.5355 60.527 22.7289 52.3918 34.9746C47.5072 42.3367 43.3875 48.3953 43.2484 48.432C43.0746 48.4687 41.1451 46.4675 38.3117 43.3464C35.7564 40.5191 33.4098 38.0773 33.0969 37.9121C32.2625 37.5082 30.9762 37.5632 30.2113 38.0589C29.8637 38.2793 28.4557 39.6195 27.0824 41.0332C24.8922 43.273 24.5445 43.7136 24.3707 44.4296C24.1795 45.2558 24.2838 46.2289 24.6314 46.8898C25.0486 47.6793 42.3793 66.6996 42.9703 67.03C43.3354 67.2136 43.9611 67.3789 44.3609 67.3789C46.0123 67.3605 45.4387 68.1316 58.8756 47.9179C66.9238 35.7824 71.3043 29.0261 71.4434 28.5304C71.6867 27.6492 71.565 26.8046 71.0783 25.9601C70.748 25.3726 65.5853 21.4621 64.5598 21.0031C63.7254 20.6359 62.9432 20.691 62.0566 21.15ZM66.385 25.4461C67.9668 26.6394 69.0098 27.5207 69.0098 27.7043C68.9924 27.8695 63.5342 36.223 56.8592 46.2656C48.3764 59.0621 44.6217 64.5515 44.3783 64.5882C44.1176 64.625 41.9621 62.3668 35.3914 55.0781C30.6459 49.8273 26.7695 45.4027 26.7695 45.2742C26.7695 44.9988 31.515 40.207 31.7932 40.207C31.8801 40.207 34.0529 42.5203 36.6082 45.366C39.1809 48.1933 41.5102 50.6535 41.8057 50.8187C42.5705 51.241 43.9785 51.1859 44.7434 50.6902C45.2127 50.3781 47.5594 46.9632 54.2518 36.8839C60.4227 27.5574 63.2213 23.5 63.4299 23.5C63.6037 23.5 64.9248 24.3812 66.385 25.4461Z" fill="#8DC8CF"/>
<path d="M80.4998 49.1848C80.3086 49.3867 79.9783 50.1578 79.7871 50.8922C79.1961 52.9852 77.6143 57.1344 76.4844 59.5578C71.2869 70.757 62.7346 80.3957 51.9746 87.152C49.3324 88.8227 44.8998 91.2461 44.5174 91.2461C44.0307 91.2461 38.8332 88.327 35.965 86.4543C23.2408 78.1191 13.9758 66.0203 9.54315 51.8652C8.89998 49.8457 8.74354 49.5152 8.29159 49.2766C7.63104 48.9094 6.90096 49.2031 6.60545 49.9191C6.44901 50.3598 6.50116 50.727 7.04002 52.4711C11.8029 68.0582 22.9105 81.9563 37.373 90.475C42.1359 93.2656 43.457 93.9082 44.5 93.9082C45.5256 93.9082 46.4469 93.4676 51.0185 90.8238C63.2039 83.7555 72.7123 73.4742 78.6398 60.9898C80.3607 57.3547 82.5683 51.2043 82.5683 50.0293C82.5683 49.5152 81.8209 48.8359 81.2473 48.8359C81.0213 48.8359 80.6736 49.0012 80.4998 49.1848Z" fill="#8DC8CF"/>
</svg>
