<svg width="93" height="94" viewBox="0 0 93 94" fill="none" xmlns="http://www.w3.org/2000/svg">
<path d="M51.1682 0.257034C50.8049 0.385551 50.2418 0.697662 49.933 0.936333C49.6424 1.175 44.1023 9.21641 37.6359 18.8184L25.8838 36.2598L22.5598 36.3148L19.2357 36.3516L19.3266 35.7641C19.3811 35.4336 19.7262 32.1473 20.0713 28.457C20.4164 24.7668 20.7434 21.407 20.7978 20.9848C20.9068 20.232 20.9613 20.177 22.1965 19.516C23.4316 18.8551 25.1754 17.3496 25.9019 16.2848L26.2652 15.7523L31.5146 16.3031C35.0748 16.652 36.9457 16.7805 37.2726 16.6703C38.2898 16.3215 38.3625 14.7426 37.3816 14.3203C37.1455 14.2102 34.5662 13.898 31.6236 13.6043C25.7021 13.0352 25.248 13.0535 24.3762 14.0266C24.0855 14.3387 23.4316 15.0547 22.9049 15.6238C22.36 16.2297 21.5789 16.8539 20.9432 17.166C19.3266 17.9555 18.7635 18.4512 18.4728 19.3141C18.2912 19.7914 17.8734 23.3898 17.4012 28.2184L16.6201 36.3516H15.7664H14.8945L14.9853 35.6539C15.0398 35.2867 15.6211 29.5402 16.2568 22.8941C16.9107 16.2297 17.5283 10.6484 17.6191 10.4465C17.8916 9.93243 18.4002 9.73047 19.3811 9.73047C19.8533 9.73047 24.7031 10.1895 30.1342 10.7402C38.8893 11.6215 40.0881 11.6949 40.524 11.4746C41.3959 11.0156 41.3596 9.56524 40.4695 9.17969C40.2334 9.08789 37.0365 8.7207 33.331 8.35352C29.6437 7.98633 24.9211 7.52734 22.8322 7.30704C20.7252 7.10508 18.709 6.99493 18.273 7.05C16.6201 7.30704 15.2033 8.73907 14.8764 10.5199C14.7674 11.0523 14.2588 15.8992 13.732 21.2969L12.7875 31.1191L10.4988 31.2293C8.53711 31.3027 8.083 31.3945 7.33828 31.7801C5.79433 32.5879 4.92246 34.1117 4.90429 36.0762C4.88613 36.9574 4.8498 37.0125 4.03242 37.5449C3.57832 37.8387 2.92441 38.4445 2.59746 38.8852C1.38047 40.5008 1.43496 39.0871 1.48945 65.5613L1.54394 89.502L1.97988 90.4566C2.50664 91.6684 3.99609 93.082 5.17675 93.5594C6.06679 93.9082 7.01133 93.9082 44.4111 93.9082H82.7373L83.6818 93.4676C84.808 92.9535 86.1521 91.5766 86.6971 90.3648C87.0785 89.5387 87.0967 89.2449 87.1512 82.4703L87.2057 75.457H87.8777C89.4398 75.457 90.8203 74.6676 91.2926 73.4926C91.4924 73.0152 91.5469 71.2895 91.5469 65.1758C91.5469 57.8504 91.5287 57.4098 91.1836 56.7305C90.6387 55.6473 89.8758 55.1883 88.4226 55.1148L87.1875 55.0414V48.3953C87.1875 42.8141 87.133 41.584 86.8969 40.7578C86.5699 39.6563 85.807 38.4078 85.0986 37.857C84.6809 37.5266 84.6445 37.3613 84.6445 36.1313C84.6445 34.4973 84.0996 33.1938 83.0461 32.3125C82.2832 31.6883 80.9391 31.2109 79.8855 31.2109H79.1771L81.3023 28.0715C82.483 26.3273 83.5365 24.5465 83.6818 24.0691C84.1178 22.6004 83.6455 20.8563 82.5193 19.8098C82.2469 19.5527 79.8492 17.8453 77.1973 16.0277C74.5453 14.2102 68.4603 10.0059 63.665 6.70117C58.8697 3.39648 54.7102 0.569145 54.4195 0.422272C53.6748 0.0367203 52.0037 -0.0550766 51.1682 0.257034ZM53.4205 2.95586C54.5285 3.54337 80.267 21.407 80.7029 21.866C81.5021 22.7289 81.375 23.1695 79.6131 25.8133C78.723 27.1168 76.7976 30.0176 75.29 32.2574L72.5654 36.3332L71.5119 36.3516H70.4766L72.6018 33.2121C73.7643 31.468 74.8178 29.7422 74.9631 29.3383C75.2355 28.5121 75.1266 27.8879 74.3637 26.0703C73.9459 25.0605 73.8551 24.5832 73.8187 22.8941C73.7824 21.2602 73.6916 20.8012 73.3828 20.3055C73.1285 19.8648 70.8762 18.2125 65.6449 14.6141C61.5943 11.8234 58.0887 9.45508 57.8344 9.36328C57.0351 9.05118 56.1996 9.16133 54.7283 9.76719C53.4932 10.2812 53.0754 10.3547 51.368 10.3914C49.0793 10.4465 48.4254 10.6852 47.6443 11.8051C47.3355 12.2273 43.5574 17.827 39.2344 24.2344C34.9113 30.6418 31.2785 36.0027 31.1695 36.1313C31.0242 36.2781 30.6064 36.3516 30.007 36.3148L29.0988 36.2598L40.1607 19.8281C46.2457 10.7953 51.4043 3.24961 51.6041 3.06602C52.04 2.71719 52.8756 2.66211 53.4205 2.95586ZM64.21 16.8539L71.1123 21.609L71.2213 23.6102C71.3121 25.1707 71.4392 25.8867 71.8207 26.8965C72.0932 27.5941 72.3293 28.3102 72.3475 28.457C72.3656 28.6223 71.2394 30.4582 69.8408 32.5512L67.2978 36.3332L65.0273 36.3516H62.7387L62.5389 35.1215C62.2482 33.4324 61.0676 31.1191 59.8324 29.7606C58.5246 28.3285 57.126 27.4106 55.2551 26.7496C51.4588 25.4277 46.9178 26.5109 44.1205 29.4117C42.5584 31.0273 41.3777 33.3223 41.0871 35.3051L40.96 36.2598L37.6359 36.3148C34.9658 36.3516 34.3301 36.3148 34.4391 36.1313C34.5299 36.0027 38.0537 30.752 42.2859 24.4547L49.9875 13.0352H51.6949C53.0027 13.0352 53.7111 12.925 54.801 12.5762C55.582 12.3191 56.3449 12.0438 56.4721 11.952C56.6355 11.8418 56.8717 11.8418 57.017 11.9336C57.1805 12.0254 60.4137 14.2285 64.21 16.8539ZM53.8564 29.0996C55.3277 29.5035 56.5447 30.2012 57.6527 31.3211C58.7971 32.4777 59.4873 33.7078 59.8324 35.2133L60.0867 36.3516H51.8402H43.5756L43.7027 35.6539C44.5383 31.009 49.3154 27.9062 53.8564 29.0996ZM12.4605 34.534C12.4061 34.8461 12.3516 35.3969 12.3516 35.7273V36.3516H9.99023H7.6289V35.6906C7.6289 35.2133 7.77422 34.9012 8.15566 34.4973C8.68242 33.9832 8.73691 33.9648 10.626 33.9648H12.5877L12.4605 34.534ZM81.2478 34.3504C81.7746 34.7543 82.265 36.0945 81.9926 36.3148C81.9017 36.3883 80.4668 36.425 78.7957 36.3883L75.7623 36.3332L76.5252 35.1582L77.2881 33.9648H79.0318C80.5213 33.9648 80.8482 34.0199 81.2478 34.3504ZM83.1369 39.7664C84.2812 40.6844 84.4629 41.2535 84.4629 43.8238V46.082H44.3203H4.17773V43.7871C4.17773 42.1531 4.25039 41.327 4.43203 40.9781C4.75898 40.3355 5.59453 39.5461 6.17578 39.3074C6.4664 39.1973 19.6353 39.1422 44.5383 39.1605L82.4285 39.1973L83.1369 39.7664ZM84.4629 51.957V55.0781H77.615C72.1295 55.0781 70.5129 55.1332 69.5865 55.3535C66.4078 56.1246 63.6832 58.5848 62.4844 61.7793C61.9758 63.1563 61.7941 65.9652 62.1211 67.3973C62.9385 70.959 65.6268 73.8598 69.2051 75.0164C70.0588 75.2918 71.185 75.3469 77.3426 75.4203L84.4629 75.4938V78.5965V81.6992H51.8039C19.2902 81.6992 19.1268 81.6992 18.7998 82.0664C18.382 82.5438 18.382 83.425 18.7998 83.9023C19.1268 84.2695 19.2902 84.2695 51.8039 84.2695H84.4629V86.6012C84.4629 88.6941 84.4084 89.0246 84.0451 89.6855C83.809 90.0895 83.3186 90.5852 82.9189 90.8238L82.1924 91.2461H44.3566C2.19785 91.2461 5.79433 91.3563 4.75898 89.9977C4.28672 89.3734 4.26855 89.2449 4.21406 86.8031L4.1414 84.2695H7.97402C11.5705 84.2695 11.8248 84.2512 12.1699 83.9023C12.3697 83.7004 12.5332 83.2965 12.5332 82.9844C12.5332 82.6723 12.3697 82.2684 12.1699 82.0664C11.8248 81.7176 11.5705 81.6992 7.99218 81.6992H4.17773V65.2676V48.8359H44.3203H84.4629V51.957ZM88.7859 65.2125L88.8223 72.7031H79.9764C74.7814 72.7031 70.7853 72.6113 70.3312 72.5195C67.4795 71.8402 65.1908 69.3984 64.6459 66.4426C63.9193 62.4219 66.8619 58.3828 70.8943 57.8504C71.5119 57.7586 75.7805 57.7035 80.376 57.7219L88.7314 57.7402L88.7859 65.2125Z" fill="#8DC8CF"/>
<path d="M70.6582 60.0168C68.3695 60.7328 66.6621 63.2848 66.8982 65.6348C67.1889 68.5539 69.3685 70.5734 72.184 70.5734C76.8703 70.5918 79.2498 65.2125 76.1982 61.5406C75.9439 61.2285 75.2355 60.7145 74.618 60.4207C73.6916 59.9434 73.292 59.8516 72.3111 59.8699C71.6572 59.8699 70.9125 59.9434 70.6582 60.0168ZM73.2738 62.6789C75.181 63.4867 75.4717 66.1855 73.7824 67.4523C73.0922 67.9848 71.6209 68.0398 70.8762 67.5809C69.0416 66.4059 69.1506 63.652 71.0941 62.7707C71.9842 62.3668 72.4746 62.3484 73.2738 62.6789Z" fill="#8DC8CF"/>
</svg>
